<?xml version="1.0" encoding="UTF-8"?>
<!DOCTYPE svg PUBLIC "-//W3C//DTD SVG 1.0//EN" "http://www.w3.org/TR/2001/REC-SVG-20010904/DTD/svg10.dtd">
<!-- Creator: CorelDRAW 2021.5 -->
<svg xmlns="http://www.w3.org/2000/svg" xml:space="preserve" width="580px" height="100px" version="1.0" style="shape-rendering:geometricPrecision; text-rendering:geometricPrecision; image-rendering:optimizeQuality; fill-rule:evenodd; clip-rule:evenodd"
viewBox="0 0 187.41 32.37"
 xmlns:xlink="http://www.w3.org/1999/xlink"
 xmlns:xodm="http://www.corel.com/coreldraw/odm/2003">
 <defs>
  <style type="text/css">
   <![CDATA[
    .fil0 {fill:none}
    .fil2 {fill:black;fill-rule:nonzero}
    .fil1 {fill:#141414;fill-rule:nonzero}
   ]]>
  </style>
 </defs>
 <g id="Layer_x0020_1">
  <metadata id="CorelCorpID_0Corel-Layer"/>
  <rect class="fil0" width="187.41" height="32.37"/>
  <g id="_2370890716144">
   <g id="g4445_00000044164315196855410730000010923058159558860945_">
    <g id="path4447_00000101066208128091485130000001286469646837536432_">
     <path class="fil1" d="M28.51 30.78l-21.54 0c-1.06,0 -1.92,-0.99 -1.92,-2.22l0 -4.77c0,-0.34 0.27,-0.62 0.62,-0.62 0.34,0 0.61,0.28 0.61,0.62l0 4.77c0,0.52 0.32,0.98 0.69,0.98l21.54 0c0.34,0 0.62,0.27 0.62,0.61 0,0.35 -0.28,0.63 -0.62,0.63zm0.27 -10.56c-0.34,0 -0.62,-0.28 -0.62,-0.62l0 -4.77c0,-0.51 -0.32,-0.97 -0.69,-0.97l-20.5 0c-0.36,0 -0.69,0.46 -0.69,0.97l0 3.44c0,0.34 -0.27,0.62 -0.61,0.62 -0.35,0 -0.62,-0.28 -0.62,-0.62l0 -3.44c0,-1.22 0.86,-2.21 1.92,-2.21l20.5 0c1.07,0 1.93,0.99 1.93,2.21l0 4.77c0,0.34 -0.28,0.62 -0.62,0.62z"/>
    </g>
   </g>
   <g id="g4449_00000047052809213243770550000013028322964157268403_">
    <g id="path4451_00000054261385298961547920000007485465566547242626_">
     <path class="fil1" d="M26.29 13.86c-0.34,0 -0.62,-0.28 -0.62,-0.62l0 -2.02c0,-4.66 -3.79,-8.45 -8.44,-8.45 -4.66,0 -8.45,3.79 -8.45,8.45l0 2.02c0,0.34 -0.27,0.62 -0.62,0.62 -0.34,0 -0.61,-0.28 -0.61,-0.62l0 -2.02c0,-2.58 1.01,-5.01 2.84,-6.84 1.83,-1.84 4.26,-2.85 6.84,-2.85 2.58,0 5.01,1.01 6.84,2.85 1.84,1.83 2.85,4.26 2.85,6.84l0 2.02c-0.01,0.34 -0.29,0.62 -0.63,0.62z"/>
    </g>
   </g>
   <g id="g4453_00000136390047092379629860000000206712532634340228_">
    <g id="path4455_00000125600129740225440430000002863762017452154280_">
     <path class="fil1" d="M23.34 13.86c-0.35,0 -0.62,-0.28 -0.62,-0.62l0 -2.02c0,-3.03 -2.47,-5.5 -5.5,-5.5 -3.03,0 -5.49,2.47 -5.49,5.5l0 2.02c0,0.34 -0.27,0.62 -0.61,0.62 -0.35,0 -0.62,-0.28 -0.62,-0.62l0 -2.02c0,-1.79 0.7,-3.48 1.98,-4.76 1.27,-1.28 2.96,-1.98 4.75,-1.98 1.79,0 3.48,0.7 4.76,1.98 1.28,1.28 1.98,2.97 1.98,4.76l0 2.02c-0.02,0.34 -0.29,0.62 -0.63,0.62z"/>
    </g>
   </g>
   <g id="g4457_00000114044739014445358030000015160427845221504683_">
    <g id="path4459_00000135688523636274916980000015815262263309531545_">
     <path class="fil1" d="M24.22 19.2l-5.49 0c-0.35,0 -0.62,-0.27 -0.62,-0.62 0,-0.34 0.27,-0.61 0.62,-0.61l5.49 0c0.34,0 0.62,0.27 0.62,0.61 0,0.35 -0.28,0.62 -0.62,0.62z"/>
    </g>
   </g>
   <g id="g4461_00000075154574857625337290000012601915852111239865_">
    <g id="path4463_00000115510345342434943290000010343908753832220037_">
     <path class="fil1" d="M22.52 22.53l-3.79 0c-0.35,0 -0.62,-0.28 -0.62,-0.62 0,-0.34 0.27,-0.62 0.62,-0.62l3.79 0c0.34,0 0.61,0.28 0.61,0.62 0.01,0.34 -0.27,0.62 -0.61,0.62z"/>
    </g>
   </g>
   <g id="g4465_00000134227291128686446190000014501279448691372440_">
    <g id="path4467_00000093140615765580355100000006491577625239519373_">
     <path class="fil1" d="M5.67 21.65c-0.35,0 -0.62,-0.27 -0.62,-0.62l0 0c0,-0.34 0.27,-0.62 0.62,-0.62 0.34,0 0.61,0.28 0.61,0.62 0,0.34 -0.27,0.62 -0.61,0.62z"/>
    </g>
   </g>
   <g id="g4469_00000082343911148606974220000001092115331347416224_">
    <g id="path4471_00000034793415126658485280000013965646672094541442_">
     <path class="fil1" d="M12.82 22.44c-1.74,0 -3.16,-1.41 -3.16,-3.16 0,-1.74 1.42,-3.16 3.16,-3.16 1.75,0 3.17,1.42 3.17,3.16 0,1.74 -1.42,3.16 -3.17,3.16zm0 -5.08c-1.05,0 -1.92,0.86 -1.92,1.92 0,1.06 0.87,1.93 1.92,1.93 1.07,0 1.93,-0.87 1.93,-1.93 0,-1.06 -0.87,-1.92 -1.93,-1.92z"/>
    </g>
   </g>
   <g id="g4473_00000089560422843083111210000001709012395576750731_">
    <g id="path4475_00000044861458380479571970000012796227572266035081_">
     <path class="fil1" d="M15.76 27.28l-5.88 0c-0.87,0 -1.58,-0.71 -1.58,-1.58 0,-1.15 0.51,-2.31 1.4,-3.17 0.86,-0.84 2,-1.33 3.12,-1.33 1.12,0 2.26,0.49 3.13,1.33 0.88,0.86 1.39,2.02 1.39,3.17 0,0.87 -0.71,1.58 -1.58,1.58zm-2.94 -4.84c-1.68,0 -3.28,1.58 -3.28,3.26 0,0.18 0.16,0.34 0.34,0.34l5.88 0c0.19,0 0.35,-0.16 0.35,-0.34 0,-1.67 -1.6,-3.26 -3.29,-3.26z"/>
    </g>
   </g>
   <g>
    <g id="g4441_00000052070015854612372710000011639630874937926321_">
     <g id="path4443_00000043445439815958905540000009834135773168820120_">
      <path class="fil1" d="M28.78 30.82c-0.26,0 -0.52,-0.1 -0.85,-0.3 -1.19,-0.71 -2.23,-1.89 -3.09,-3.49 -0.8,-1.5 -1.22,-3.06 -1.2,-4.52 0.01,-0.92 0.37,-1.16 0.95,-1.48l0.02 -0.01 3.87 -2.09c0.19,-0.09 0.41,-0.09 0.59,0l3.9 2.1c0.58,0.32 0.94,0.56 0.95,1.49 0.02,1.45 -0.4,3.02 -1.2,4.51 -0.86,1.61 -1.91,2.78 -3.09,3.5 -0.33,0.19 -0.59,0.29 -0.85,0.29zm0.03 -1.24l0 0 0 0zm-3.92 -7.29c0,0.03 -0.01,0.1 -0.02,0.23 -0.01,1.26 0.36,2.61 1.06,3.92 0.76,1.41 1.64,2.42 2.64,3.01 0,0 0,0 0,0 0.12,0.08 0.18,0.11 0.21,0.12 0.03,-0.01 0.09,-0.05 0.21,-0.12 0.98,-0.58 1.89,-1.63 2.63,-3.01 0.7,-1.31 1.07,-2.66 1.06,-3.92 0,-0.14 -0.01,-0.2 -0.02,-0.24 -0.05,-0.03 -0.17,-0.1 -0.28,-0.16l-0.02 -0.01 -3.59 -1.93 -3.6 1.94c-0.1,0.06 -0.23,0.13 -0.28,0.17z"/>
     </g>
    </g>
    <g id="g4477_00000039838593670910446500000015767557653253594780_">
     <g id="path4479_00000115489710564504270740000000568311071089826738_">
      <path class="fil1" d="M28.36 26.58c-0.15,0 -0.3,-0.05 -0.42,-0.16l-1.06 -1c-0.25,-0.23 -0.26,-0.62 -0.02,-0.87 0.23,-0.25 0.62,-0.27 0.87,-0.03l0.62 0.58 1.77 -1.82c0.24,-0.25 0.63,-0.25 0.88,-0.01 0.24,0.24 0.25,0.63 0.01,0.88l-2.2 2.24c-0.12,0.13 -0.28,0.19 -0.45,0.19z"/>
     </g>
    </g>
   </g>
  </g>
  <polygon class="fil2" points="40.1,15.95 40.1,8.54 40.91,9.35 38.48,9.35 38.48,7.84 41.97,7.84 41.97,15.95 "/>
  <path id="_1" class="fil2" d="M46.86 16.08c-0.66,0 -1.26,-0.16 -1.78,-0.49 -0.53,-0.33 -0.94,-0.8 -1.24,-1.43 -0.3,-0.62 -0.45,-1.38 -0.45,-2.27 0,-0.88 0.15,-1.64 0.45,-2.27 0.3,-0.62 0.71,-1.1 1.24,-1.43 0.52,-0.32 1.12,-0.49 1.78,-0.49 0.67,0 1.27,0.17 1.79,0.49 0.52,0.33 0.93,0.81 1.23,1.43 0.3,0.63 0.45,1.39 0.45,2.27 0,0.89 -0.15,1.65 -0.45,2.27 -0.3,0.63 -0.71,1.1 -1.23,1.43 -0.52,0.33 -1.12,0.49 -1.79,0.49zm0 -1.58c0.32,0 0.59,-0.09 0.83,-0.27 0.23,-0.18 0.42,-0.46 0.55,-0.84 0.14,-0.39 0.21,-0.89 0.21,-1.5 0,-0.61 -0.07,-1.1 -0.21,-1.49 -0.13,-0.39 -0.32,-0.67 -0.55,-0.85 -0.24,-0.17 -0.51,-0.26 -0.83,-0.26 -0.31,0 -0.58,0.09 -0.82,0.26 -0.23,0.18 -0.42,0.46 -0.55,0.85 -0.14,0.39 -0.2,0.88 -0.2,1.49 0,0.61 0.06,1.11 0.2,1.5 0.13,0.38 0.32,0.66 0.55,0.84 0.24,0.18 0.51,0.27 0.82,0.27z"/>
  <path id="_2" class="fil2" d="M54.72 16.08c-0.66,0 -1.26,-0.16 -1.78,-0.49 -0.53,-0.33 -0.94,-0.8 -1.24,-1.43 -0.3,-0.62 -0.45,-1.38 -0.45,-2.27 0,-0.88 0.15,-1.64 0.45,-2.27 0.3,-0.62 0.71,-1.1 1.24,-1.43 0.52,-0.32 1.12,-0.49 1.78,-0.49 0.67,0 1.27,0.17 1.79,0.49 0.52,0.33 0.93,0.81 1.23,1.43 0.3,0.63 0.46,1.39 0.46,2.27 0,0.89 -0.16,1.65 -0.46,2.27 -0.3,0.63 -0.71,1.1 -1.23,1.43 -0.52,0.33 -1.12,0.49 -1.79,0.49zm0 -1.58c0.32,0 0.59,-0.09 0.83,-0.27 0.23,-0.18 0.42,-0.46 0.56,-0.84 0.13,-0.39 0.2,-0.89 0.2,-1.5 0,-0.61 -0.07,-1.1 -0.2,-1.49 -0.14,-0.39 -0.33,-0.67 -0.56,-0.85 -0.24,-0.17 -0.51,-0.26 -0.83,-0.26 -0.31,0 -0.58,0.09 -0.81,0.26 -0.24,0.18 -0.43,0.46 -0.56,0.85 -0.14,0.39 -0.2,0.88 -0.2,1.49 0,0.61 0.06,1.11 0.2,1.5 0.13,0.38 0.32,0.66 0.56,0.84 0.23,0.18 0.5,0.27 0.81,0.27z"/>
  <path id="_3" class="fil2" d="M60.28 15.95l5.53 -8.11 1.38 0 -5.53 8.11 -1.38 0zm0.71 -3.73c-0.4,0 -0.75,-0.09 -1.05,-0.27 -0.3,-0.19 -0.53,-0.44 -0.71,-0.78 -0.17,-0.34 -0.26,-0.73 -0.26,-1.19 0,-0.45 0.09,-0.85 0.26,-1.18 0.18,-0.33 0.41,-0.59 0.71,-0.77 0.3,-0.19 0.65,-0.28 1.05,-0.28 0.39,0 0.74,0.09 1.04,0.28 0.3,0.18 0.53,0.44 0.7,0.77 0.17,0.33 0.26,0.73 0.26,1.18 0,0.46 -0.09,0.85 -0.26,1.19 -0.17,0.34 -0.4,0.59 -0.7,0.78 -0.3,0.18 -0.65,0.27 -1.04,0.27zm0 -0.95c0.25,0 0.45,-0.11 0.61,-0.32 0.15,-0.21 0.23,-0.54 0.23,-0.97 0,-0.43 -0.08,-0.75 -0.23,-0.96 -0.16,-0.22 -0.36,-0.32 -0.61,-0.32 -0.25,0 -0.45,0.1 -0.61,0.32 -0.16,0.21 -0.24,0.53 -0.24,0.96 0,0.43 0.08,0.75 0.24,0.96 0.16,0.22 0.36,0.33 0.61,0.33zm5.5 4.77c-0.39,0 -0.74,-0.09 -1.04,-0.27 -0.31,-0.19 -0.54,-0.44 -0.71,-0.78 -0.17,-0.34 -0.26,-0.73 -0.26,-1.19 0,-0.45 0.09,-0.85 0.26,-1.18 0.17,-0.33 0.4,-0.59 0.71,-0.77 0.3,-0.19 0.65,-0.28 1.04,-0.28 0.4,0 0.75,0.09 1.05,0.28 0.3,0.18 0.54,0.44 0.71,0.77 0.17,0.33 0.25,0.73 0.25,1.18 0,0.46 -0.08,0.85 -0.25,1.19 -0.17,0.34 -0.41,0.59 -0.71,0.78 -0.3,0.18 -0.65,0.27 -1.05,0.27zm0 -0.95c0.25,0 0.45,-0.11 0.61,-0.32 0.15,-0.21 0.23,-0.53 0.23,-0.97 0,-0.42 -0.08,-0.74 -0.23,-0.96 -0.16,-0.21 -0.36,-0.32 -0.61,-0.32 -0.25,0 -0.45,0.1 -0.61,0.32 -0.16,0.21 -0.24,0.53 -0.24,0.96 0,0.44 0.08,0.76 0.24,0.97 0.16,0.21 0.36,0.32 0.61,0.32z"/>
  <path id="_4" class="fil2" d="M76.93 16.08c-0.63,0 -1.21,-0.1 -1.74,-0.3 -0.54,-0.21 -1.01,-0.5 -1.4,-0.88 -0.39,-0.37 -0.7,-0.82 -0.92,-1.33 -0.22,-0.51 -0.33,-1.07 -0.33,-1.68 0,-0.61 0.11,-1.17 0.33,-1.68 0.22,-0.51 0.53,-0.95 0.93,-1.33 0.39,-0.38 0.86,-0.67 1.39,-0.87 0.53,-0.21 1.12,-0.31 1.75,-0.31 0.7,0 1.34,0.12 1.91,0.37 0.56,0.24 1.04,0.6 1.43,1.07l-1.21 1.11c-0.28,-0.32 -0.59,-0.55 -0.93,-0.71 -0.34,-0.16 -0.71,-0.24 -1.11,-0.24 -0.37,0 -0.72,0.06 -1.04,0.18 -0.32,0.13 -0.59,0.31 -0.82,0.54 -0.23,0.23 -0.41,0.5 -0.54,0.82 -0.13,0.32 -0.19,0.67 -0.19,1.05 0,0.39 0.06,0.74 0.19,1.06 0.13,0.31 0.31,0.59 0.54,0.82 0.23,0.23 0.5,0.41 0.82,0.53 0.32,0.12 0.67,0.19 1.04,0.19 0.4,0 0.77,-0.08 1.11,-0.24 0.34,-0.16 0.65,-0.4 0.93,-0.72l1.21 1.11c-0.39,0.47 -0.87,0.83 -1.43,1.07 -0.57,0.25 -1.21,0.37 -1.92,0.37z"/>
  <polygon id="_5" class="fil2" points="81.5,15.95 81.5,7.84 83.37,7.84 83.37,13.12 87.23,7.84 88.99,7.84 88.99,15.95 87.14,15.95 87.14,10.68 83.27,15.95 "/>
  <polygon id="_6" class="fil2" points="91.01,15.95 91.01,7.84 96.73,7.84 96.72,9.37 92.43,9.37 92.86,8.94 92.87,15.95 "/>
  <path id="_7" class="fil2" d="M98.15 14.42c0.45,0.13 0.83,0.16 1.13,0.11 0.31,-0.06 0.58,-0.27 0.82,-0.65l0.39 -0.59 0.17 -0.19 2.69 -5.26 1.84 0 -3.45 6.42c-0.31,0.57 -0.67,1.02 -1.09,1.33 -0.42,0.31 -0.88,0.48 -1.39,0.52 -0.5,0.05 -1.02,-0.04 -1.56,-0.27l0.45 -1.42zm2.48 0.24l-3.66 -6.82 2 0 2.69 5.44 -1.03 1.38z"/>
  <path id="_8" class="fil2" d="M106.08 15.95l0 -8.11 3.51 0c0.73,0 1.35,0.12 1.88,0.35 0.52,0.24 0.93,0.58 1.21,1.02 0.29,0.44 0.43,0.96 0.43,1.57 0,0.6 -0.14,1.12 -0.43,1.56 -0.28,0.44 -0.69,0.78 -1.21,1.02 -0.53,0.23 -1.15,0.35 -1.88,0.35l-2.46 0 0.83 -0.84 0 3.08 -1.88 0zm1.88 -2.88l-0.83 -0.89 2.36 0c0.58,0 1.01,-0.12 1.29,-0.37 0.29,-0.24 0.43,-0.59 0.43,-1.03 0,-0.45 -0.14,-0.79 -0.43,-1.04 -0.28,-0.25 -0.71,-0.37 -1.29,-0.37l-2.36 0 0.83 -0.89 0 4.59z"/>
  <path id="_9" class="fil2" d="M119.91 7.84l1.87 0 0 8.11 -1.87 0 0 -8.11zm-3.68 8.11l-1.88 0 0 -8.11 1.88 0 0 8.11zm3.82 -3.33l-3.96 0 0 -1.58 3.96 0 0 1.58z"/>
  <path id="_10" class="fil2" d="M127.69 16.08c-0.64,0 -1.23,-0.1 -1.78,-0.31 -0.54,-0.21 -1.01,-0.5 -1.41,-0.88 -0.4,-0.38 -0.71,-0.82 -0.93,-1.33 -0.22,-0.51 -0.33,-1.06 -0.33,-1.67 0,-0.6 0.11,-1.15 0.33,-1.66 0.22,-0.51 0.53,-0.96 0.93,-1.34 0.41,-0.37 0.88,-0.67 1.42,-0.88 0.54,-0.2 1.12,-0.31 1.76,-0.31 0.64,0 1.23,0.11 1.76,0.31 0.54,0.21 1.01,0.51 1.4,0.88 0.4,0.38 0.71,0.82 0.94,1.33 0.22,0.51 0.33,1.06 0.33,1.67 0,0.61 -0.11,1.16 -0.33,1.68 -0.23,0.51 -0.54,0.95 -0.94,1.33 -0.39,0.37 -0.86,0.66 -1.4,0.87 -0.53,0.21 -1.12,0.31 -1.75,0.31zm-0.01 -1.59c0.36,0 0.69,-0.07 1,-0.19 0.3,-0.12 0.57,-0.3 0.8,-0.53 0.23,-0.23 0.41,-0.51 0.54,-0.82 0.13,-0.32 0.19,-0.67 0.19,-1.06 0,-0.38 -0.06,-0.73 -0.19,-1.05 -0.13,-0.32 -0.3,-0.59 -0.53,-0.82 -0.23,-0.23 -0.5,-0.41 -0.81,-0.54 -0.3,-0.12 -0.64,-0.18 -1,-0.18 -0.37,0 -0.7,0.06 -1,0.18 -0.31,0.13 -0.58,0.31 -0.81,0.54 -0.23,0.23 -0.41,0.5 -0.54,0.82 -0.13,0.32 -0.19,0.67 -0.19,1.05 0,0.38 0.06,0.73 0.19,1.05 0.13,0.32 0.31,0.6 0.54,0.83 0.22,0.23 0.49,0.41 0.8,0.53 0.31,0.12 0.64,0.19 1.01,0.19z"/>
  <path id="_11" class="fil2" d="M137.39 16.08c-0.62,0 -1.21,-0.1 -1.74,-0.3 -0.54,-0.21 -1,-0.5 -1.4,-0.88 -0.39,-0.37 -0.7,-0.82 -0.92,-1.33 -0.22,-0.51 -0.33,-1.07 -0.33,-1.68 0,-0.61 0.11,-1.17 0.33,-1.68 0.22,-0.51 0.53,-0.95 0.93,-1.33 0.4,-0.38 0.86,-0.67 1.39,-0.87 0.54,-0.21 1.12,-0.31 1.75,-0.31 0.71,0 1.34,0.12 1.91,0.37 0.56,0.24 1.04,0.6 1.43,1.07l-1.21 1.11c-0.27,-0.32 -0.58,-0.55 -0.92,-0.71 -0.34,-0.16 -0.71,-0.24 -1.11,-0.24 -0.38,0 -0.73,0.06 -1.05,0.18 -0.31,0.13 -0.59,0.31 -0.82,0.54 -0.23,0.23 -0.41,0.5 -0.54,0.82 -0.12,0.32 -0.19,0.67 -0.19,1.05 0,0.39 0.07,0.74 0.19,1.06 0.13,0.31 0.31,0.59 0.54,0.82 0.23,0.23 0.51,0.41 0.82,0.53 0.32,0.12 0.67,0.19 1.05,0.19 0.4,0 0.77,-0.08 1.11,-0.24 0.34,-0.16 0.65,-0.4 0.92,-0.72l1.21 1.11c-0.39,0.47 -0.87,0.83 -1.43,1.07 -0.57,0.25 -1.21,0.37 -1.92,0.37z"/>
  <polygon id="_12" class="fil2" points="143.63,15.95 143.63,8.94 144.06,9.37 141.05,9.37 141.05,7.84 148.08,7.84 148.08,9.37 145.07,9.37 145.48,8.94 145.48,15.95 "/>
  <path class="fil2" d="M38.48 24.42l0 -4.33 1.8 0c0.46,0 0.82,0.09 1.08,0.28 0.26,0.19 0.39,0.46 0.39,0.83 0,0.36 -0.12,0.63 -0.37,0.81 -0.26,0.19 -0.59,0.28 -1,0.28l0.11 -0.16c0.48,0 0.85,0.1 1.1,0.29 0.25,0.19 0.38,0.47 0.38,0.83 0,0.38 -0.13,0.66 -0.39,0.87 -0.27,0.2 -0.66,0.3 -1.18,0.3l-1.92 0zm0.45 -0.36l1.47 0c0.36,0 0.64,-0.07 0.83,-0.21 0.19,-0.13 0.29,-0.34 0.29,-0.63 0,-0.28 -0.1,-0.48 -0.29,-0.62 -0.19,-0.13 -0.47,-0.19 -0.83,-0.19l-1.47 0 0 1.65zm0 -2.01l1.32 0c0.34,0 0.6,-0.06 0.78,-0.2 0.17,-0.13 0.26,-0.33 0.26,-0.6 0,-0.26 -0.09,-0.46 -0.26,-0.59 -0.18,-0.14 -0.44,-0.21 -0.78,-0.21l-1.32 0 0 1.6z"/>
  <path id="_1_0" class="fil2" d="M42.48 24.42l1.98 -4.33 0.45 0 1.98 4.33 -0.48 0 -1.82 -4.06 0.19 0 -1.83 4.06 -0.47 0zm0.78 -1.15l0.13 -0.37 2.53 0 0.13 0.37 -2.79 0z"/>
  <polygon id="_2_1" class="fil2" points="50.27,24.03 50.16,24.15 50.16,20.09 50.61,20.09 50.61,24.15 50.49,24.03 52.71,24.03 52.59,24.15 52.59,20.09 53.04,20.09 53.04,24.42 47.72,24.42 47.72,20.09 48.18,20.09 48.18,24.15 48.06,24.03 "/>
  <polygon id="_3_2" class="fil2" points="54.5,24.42 54.5,20.09 54.95,20.09 54.95,23.68 57.73,20.09 58.14,20.09 58.14,24.42 57.69,24.42 57.69,20.84 54.91,24.42 "/>
  <polygon id="_4_3" class="fil2" points="60.46,24.42 60.46,20.36 60.59,20.49 58.94,20.49 58.94,20.09 62.44,20.09 62.44,20.49 60.8,20.49 60.91,20.36 60.91,24.42 "/>
  <path id="_5_4" class="fil2" d="M63.65 22.03l2.29 0 0 0.39 -2.29 0 0 -0.39zm0.05 2l2.61 0 0 0.39 -3.07 0 0 -4.33 2.98 0 0 0.4 -2.52 0 0 3.54z"/>
  <polygon id="_6_5" class="fil2" points="68.95,24.42 68.95,20.09 72.6,20.09 72.6,24.42 72.14,24.42 72.14,20.36 72.26,20.49 69.28,20.49 69.4,20.36 69.4,24.42 "/>
  <path id="_7_6" class="fil2" d="M75.96 24.46c-0.33,0 -0.63,-0.05 -0.91,-0.16 -0.28,-0.11 -0.52,-0.27 -0.72,-0.47 -0.21,-0.2 -0.37,-0.43 -0.48,-0.7 -0.11,-0.26 -0.17,-0.56 -0.17,-0.87 0,-0.32 0.06,-0.61 0.17,-0.88 0.11,-0.27 0.27,-0.5 0.48,-0.7 0.2,-0.2 0.44,-0.35 0.72,-0.46 0.27,-0.11 0.58,-0.17 0.91,-0.17 0.32,0 0.63,0.06 0.9,0.17 0.28,0.11 0.52,0.26 0.72,0.46 0.21,0.2 0.37,0.43 0.48,0.7 0.11,0.27 0.17,0.56 0.17,0.88 0,0.31 -0.06,0.61 -0.17,0.88 -0.11,0.26 -0.27,0.5 -0.48,0.7 -0.2,0.19 -0.44,0.35 -0.72,0.46 -0.27,0.11 -0.58,0.16 -0.9,0.16zm0 -0.41c0.26,0 0.5,-0.04 0.72,-0.13 0.22,-0.09 0.41,-0.21 0.58,-0.38 0.16,-0.16 0.29,-0.35 0.38,-0.57 0.09,-0.21 0.13,-0.45 0.13,-0.71 0,-0.26 -0.04,-0.5 -0.13,-0.72 -0.09,-0.21 -0.22,-0.4 -0.38,-0.57 -0.17,-0.16 -0.36,-0.29 -0.58,-0.38 -0.22,-0.08 -0.46,-0.13 -0.72,-0.13 -0.26,0 -0.5,0.05 -0.73,0.13 -0.22,0.09 -0.41,0.22 -0.58,0.38 -0.16,0.17 -0.29,0.36 -0.38,0.57 -0.09,0.22 -0.14,0.46 -0.14,0.72 0,0.25 0.05,0.49 0.14,0.71 0.09,0.22 0.22,0.41 0.38,0.57 0.17,0.17 0.36,0.29 0.58,0.38 0.23,0.09 0.47,0.13 0.73,0.13z"/>
  <path id="_8_7" class="fil2" d="M82.08 24.21l0 -3.72 -2.07 0 -0.04 1.05c-0.01,0.32 -0.03,0.64 -0.06,0.94 -0.02,0.3 -0.07,0.56 -0.12,0.8 -0.06,0.24 -0.13,0.43 -0.22,0.58 -0.1,0.15 -0.22,0.24 -0.37,0.26l-0.5 -0.09c0.17,0.01 0.3,-0.05 0.41,-0.18 0.11,-0.13 0.2,-0.31 0.26,-0.54 0.06,-0.23 0.1,-0.5 0.13,-0.81 0.03,-0.31 0.05,-0.65 0.06,-1l0.05 -1.41 2.93 0 0 4.12 -0.46 0zm-3.54 1.19l0.01 -1.37 4.64 0 0 1.37 -0.43 0 0 -0.98 -3.79 0 0 0.98 -0.43 0z"/>
  <path id="_9_8" class="fil2" d="M83.48 24.42l1.98 -4.33 0.46 0 1.98 4.33 -0.48 0 -1.83 -4.06 0.19 0 -1.82 4.06 -0.48 0zm0.78 -1.15l0.14 -0.37 2.52 0 0.14 0.37 -2.8 0z"/>
  <polygon id="_10_9" class="fil2" points="89.37,24.42 89.37,20.36 89.5,20.49 87.85,20.49 87.85,20.09 91.35,20.09 91.35,20.49 89.71,20.49 89.82,20.36 89.82,24.42 "/>
  <path id="_11_10" class="fil2" d="M93.99 24.46c-0.32,0 -0.63,-0.05 -0.9,-0.16 -0.28,-0.11 -0.52,-0.27 -0.73,-0.47 -0.2,-0.2 -0.36,-0.43 -0.48,-0.7 -0.11,-0.26 -0.17,-0.56 -0.17,-0.87 0,-0.32 0.06,-0.61 0.17,-0.88 0.12,-0.27 0.28,-0.5 0.48,-0.7 0.21,-0.2 0.45,-0.35 0.72,-0.46 0.28,-0.11 0.58,-0.17 0.91,-0.17 0.33,0 0.63,0.06 0.91,0.17 0.27,0.11 0.51,0.26 0.72,0.46 0.2,0.2 0.36,0.43 0.48,0.7 0.11,0.27 0.17,0.56 0.17,0.88 0,0.31 -0.06,0.61 -0.17,0.88 -0.12,0.26 -0.28,0.5 -0.48,0.7 -0.21,0.19 -0.45,0.35 -0.72,0.46 -0.28,0.11 -0.58,0.16 -0.91,0.16zm0 -0.41c0.26,0 0.5,-0.04 0.72,-0.13 0.23,-0.09 0.42,-0.21 0.58,-0.38 0.16,-0.16 0.29,-0.35 0.38,-0.57 0.09,-0.21 0.14,-0.45 0.14,-0.71 0,-0.26 -0.05,-0.5 -0.14,-0.72 -0.09,-0.21 -0.22,-0.4 -0.38,-0.57 -0.16,-0.16 -0.35,-0.29 -0.58,-0.38 -0.22,-0.08 -0.46,-0.13 -0.72,-0.13 -0.26,0 -0.5,0.05 -0.72,0.13 -0.22,0.09 -0.42,0.22 -0.58,0.38 -0.16,0.17 -0.29,0.36 -0.38,0.57 -0.1,0.22 -0.14,0.46 -0.14,0.72 0,0.25 0.04,0.49 0.14,0.71 0.09,0.22 0.22,0.41 0.38,0.57 0.16,0.17 0.36,0.29 0.58,0.38 0.22,0.09 0.46,0.13 0.72,0.13z"/>
  <path id="_12_11" class="fil2" d="M97.36 24.42l0 -4.33 0.45 0 0 3.94 2.62 0 0 -3.94 0.46 0 0 4.33 -3.53 0zm3.79 1.02l0 -1.14 0.11 0.12 -0.83 0 0 -0.39 1.14 0 0 1.41 -0.42 0z"/>
  <polygon id="_13" class="fil2" points="102.48,24.42 102.48,20.09 102.94,20.09 102.94,23.68 105.71,20.09 106.13,20.09 106.13,24.42 105.67,24.42 105.67,20.84 102.9,24.42 "/>
  <path id="_14" class="fil2" d="M111.1 24.46c-0.32,0 -0.62,-0.05 -0.9,-0.16 -0.28,-0.11 -0.52,-0.27 -0.72,-0.46 -0.2,-0.2 -0.36,-0.44 -0.47,-0.7 -0.12,-0.27 -0.17,-0.57 -0.17,-0.88 0,-0.32 0.05,-0.61 0.17,-0.88 0.11,-0.27 0.27,-0.5 0.48,-0.7 0.2,-0.2 0.44,-0.35 0.72,-0.46 0.27,-0.11 0.57,-0.17 0.9,-0.17 0.31,0 0.61,0.05 0.89,0.16 0.27,0.11 0.51,0.26 0.7,0.47l-0.29 0.3c-0.18,-0.19 -0.38,-0.32 -0.59,-0.4 -0.22,-0.08 -0.45,-0.12 -0.7,-0.12 -0.26,0 -0.5,0.05 -0.72,0.13 -0.22,0.09 -0.42,0.22 -0.58,0.38 -0.17,0.17 -0.3,0.36 -0.39,0.57 -0.09,0.22 -0.14,0.46 -0.14,0.72 0,0.26 0.05,0.5 0.14,0.71 0.09,0.22 0.22,0.41 0.39,0.57 0.16,0.17 0.36,0.29 0.58,0.38 0.22,0.09 0.46,0.13 0.72,0.13 0.25,0 0.48,-0.04 0.7,-0.12 0.21,-0.08 0.41,-0.22 0.59,-0.4l0.29 0.29c-0.19,0.21 -0.43,0.37 -0.7,0.48 -0.28,0.11 -0.58,0.16 -0.9,0.16z"/>
  <path id="_15" class="fil2" d="M114.05 22.03l2.29 0 0 0.39 -2.29 0 0 -0.39zm0.05 2l2.61 0 0 0.39 -3.07 0 0 -4.33 2.98 0 0 0.4 -2.52 0 0 3.54z"/>
  <path id="_16" class="fil2" d="M118.83 23.9l0.17 -0.32c0.19,0.16 0.4,0.28 0.64,0.36 0.24,0.09 0.48,0.13 0.72,0.13 0.24,0 0.46,-0.03 0.66,-0.1 0.2,-0.07 0.36,-0.18 0.48,-0.32 0.13,-0.13 0.19,-0.3 0.19,-0.5 0,-0.25 -0.1,-0.45 -0.3,-0.58 -0.2,-0.14 -0.48,-0.21 -0.83,-0.21l-0.93 0 0 -0.37 0.9 0c0.31,0 0.54,-0.06 0.72,-0.19 0.17,-0.13 0.25,-0.32 0.25,-0.55 0,-0.16 -0.05,-0.3 -0.14,-0.42 -0.1,-0.12 -0.23,-0.21 -0.4,-0.27 -0.17,-0.07 -0.35,-0.1 -0.56,-0.11 -0.21,0 -0.42,0.02 -0.64,0.08 -0.22,0.06 -0.43,0.16 -0.64,0.28l-0.15 -0.37c0.26,-0.16 0.52,-0.26 0.8,-0.32 0.28,-0.06 0.54,-0.08 0.8,-0.06 0.26,0.02 0.5,0.08 0.71,0.18 0.21,0.1 0.37,0.23 0.5,0.39 0.12,0.16 0.18,0.35 0.18,0.57 0,0.21 -0.05,0.39 -0.16,0.55 -0.1,0.16 -0.25,0.28 -0.44,0.36 -0.18,0.09 -0.41,0.13 -0.66,0.13l0.02 -0.14c0.29,0 0.54,0.05 0.76,0.14 0.21,0.09 0.37,0.22 0.49,0.39 0.12,0.16 0.18,0.36 0.18,0.58 0,0.21 -0.06,0.4 -0.16,0.56 -0.11,0.16 -0.25,0.3 -0.43,0.41 -0.19,0.11 -0.39,0.19 -0.62,0.24 -0.23,0.04 -0.47,0.06 -0.71,0.04 -0.25,-0.02 -0.49,-0.08 -0.73,-0.17 -0.24,-0.09 -0.46,-0.22 -0.67,-0.39z"/>
  <path id="_17" class="fil2" d="M122.65 24.42l1.98 -4.33 0.45 0 1.98 4.33 -0.48 0 -1.82 -4.06 0.19 0 -1.82 4.06 -0.48 0zm0.78 -1.15l0.14 -0.37 2.52 0 0.13 0.37 -2.79 0z"/>
  <polygon id="_18" class="fil2" points="130.44,24.03 130.33,24.15 130.33,20.09 130.78,20.09 130.78,24.15 130.66,24.03 132.88,24.03 132.76,24.15 132.76,20.09 133.21,20.09 133.21,24.42 127.89,24.42 127.89,20.09 128.35,20.09 128.35,24.15 128.23,24.03 "/>
  <polygon id="_19" class="fil2" points="135.53,24.42 135.53,20.36 135.65,20.49 134.01,20.49 134.01,20.09 137.51,20.09 137.51,20.49 135.87,20.49 135.98,20.36 135.98,24.42 "/>
  <polygon id="_20" class="fil2" points="138.31,24.42 138.31,20.09 138.76,20.09 138.76,23.68 141.54,20.09 141.95,20.09 141.95,24.42 141.5,24.42 141.5,20.84 138.73,24.42 "/>
  <polygon id="_21" class="fil2" points="144.28,24.42 144.28,20.36 144.4,20.49 142.75,20.49 142.75,20.09 146.25,20.09 146.25,20.49 144.61,20.49 144.73,20.36 144.73,24.42 "/>
  <path id="_22" class="fil2" d="M147.46 22.03l2.3 0 0 0.39 -2.3 0 0 -0.39zm0.05 2l2.61 0 0 0.39 -3.06 0 0 -4.33 2.97 0 0 0.4 -2.52 0 0 3.54z"/>
  <path id="_23" class="fil2" d="M154.31 20.09l0.45 0 0 4.33 -0.45 0 0 -4.33zm-2.71 4.33l-0.46 0 0 -4.33 0.46 0 0 4.33zm2.75 -2l-2.8 0 0 -0.4 2.8 0 0 0.4z"/>
  <polygon id="_24" class="fil2" points="156.22,24.42 156.22,20.09 156.67,20.09 156.67,23.68 159.45,20.09 159.86,20.09 159.86,24.42 159.41,24.42 159.41,20.84 156.64,24.42 "/>
 </g>
</svg>
