<?xml version="1.0" encoding="utf-8"?>
<!-- Generator: Adobe Illustrator 27.1.1, SVG Export Plug-In . SVG Version: 6.00 Build 0)  -->
<svg version="1.1" id="Layer_1" xmlns:xodm="http://www.corel.com/coreldraw/odm/2003"
	 xmlns="http://www.w3.org/2000/svg" xmlns:xlink="http://www.w3.org/1999/xlink" x="0px" y="0px" viewBox="0 0 554.7 100"
	 style="enable-background:new 0 0 554.7 100;" xml:space="preserve">
<style type="text/css">
	.st0{fill:none;}
	.st1{fill:#141414;}
</style>
<rect x="-24.7" y="0" class="st0" width="578.9" height="100"/>
<path class="st1" d="M133.3,50.5c1.1,0,2-0.9,2-2c0-0.3-0.1-0.7-0.2-1L130,35c-0.3-0.8-1-1.3-1.8-1.3h-10.6c-0.9,0-1.7,0.6-1.9,1.5
	l-3.5,12.9c-0.2,0.6,0,1.2,0.4,1.7c0.4,0.5,1,0.8,1.6,0.8H133.3C133.2,50.5,133.3,50.5,133.3,50.5L133.3,50.5z M116.7,46.6l2.4-8.9
	h7.8l3.5,8.9H116.7z M29.2,48.4c0,1.1-0.9,2-2,2H22c-1.1,0-2-0.9-2-2s0.9-2,2-2h5.2C28.3,46.5,29.2,47.3,29.2,48.4L29.2,48.4z
	 M21.8,33.1c0-1.1,0.9-2,2-2h33.7c1.1,0,2,0.9,2,2c0,1.1-0.9,2-2,2H44.9l-2.3,8.6c-0.3,0.9-1,1.5-1.9,1.5c-0.2,0-0.3,0-0.5-0.1
	c-1.1-0.3-1.7-1.4-1.4-2.4l2.1-7.6h-17C22.7,35,21.8,34.1,21.8,33.1C21.8,33.1,21.8,33.1,21.8,33.1z M143,51.8l-8.2-22
	c-0.3-0.8-1-1.3-1.8-1.3h-17.8l3-11c0.2-0.6,0-1.2-0.3-1.7c-0.4-0.5-1-0.8-1.6-0.8H38.8c-1.1,0-2,0.9-2,2c0,1.1,0.9,2,2,2h6.4
	l-2.3,8.3c-0.3,1.1,0.4,2.2,1.4,2.4c0.2,0,0.3,0.1,0.5,0.1c0.9,0,1.7-0.6,1.9-1.5l2.5-9.4h64.3L99.5,71.2h-37
	c-1-4.8-5.2-8.4-10.3-8.4S43,66.3,42,71.1h-6.8l5.6-20.7h19.6c1.1,0,2-0.9,2-2s-0.9-2-2-2H33c-1.1,0-2,0.9-2,2c0,1.1,0.9,2,2,2h3.7
	l-6,22.2c-0.2,0.6,0,1.2,0.4,1.7c0.4,0.5,1,0.8,1.6,0.8h9.3c0.3,1.8,1.1,3.4,2.2,4.7h-7.9c-1.1,0-2,0.9-2,2c0,1.1,0.9,2,2,2h15.2
	c0.1,0,0.2,0,0.3,0c0.2,0,0.4,0,0.5,0c5.2,0,9.5-3.7,10.4-8.7h46.6c0.3,1.8,1.1,3.4,2.1,4.7h-7.8c-1.1,0-2,0.9-2,2c0,1.1,0.9,2,2,2
	h14.9c0.1,0,0.2,0,0.4,0c0.3,0,0.5,0,0.7,0c5.2,0,9.5-3.7,10.4-8.7h8.1c0.9,0,1.7-0.6,1.9-1.5L142,66c0.1-0.5,0.1-1-0.1-1.4l-1-2
	l2.3-9.7C143.2,52.5,143.2,52.1,143,51.8L143,51.8L143,51.8z M52.3,79.8c-3.6,0-6.5-2.9-6.5-6.6c0-3.6,2.9-6.5,6.5-6.5
	c3.6,0,6.6,2.9,6.6,6.5C58.8,76.9,55.9,79.8,52.3,79.8z M119.5,79.8c-3.6,0-6.5-2.9-6.5-6.6c0-3.6,2.9-6.5,6.5-6.5
	c3.6,0,6.5,2.9,6.5,6.5C126.1,76.9,123.1,79.8,119.5,79.8z M136.4,71.1h-6.6c-1-4.8-5.2-8.4-10.3-8.4c-5.1,0-9.3,3.6-10.3,8.4h-5.6
	l10.5-38.7h17.5l7.5,20.2l-2,8.3h-4.1c-1.1,0-2,0.9-2,2s0.9,2,2,2h4.4l0.4,0.8L136.4,71.1z M24.7,16.9c0-1.1,0.9-2,2-2h5.2
	c1.1,0,2,0.9,2,2s-0.9,2-2,2h-5.2C25.6,18.9,24.7,18,24.7,16.9z M61.3,33.1c0-1.1,0.9-2,2-2h5.2c1.1,0,2,0.9,2,2s-0.9,2-2,2h-5.2
	C62.2,35,61.3,34.1,61.3,33.1z"/>
<path d="M170.2,34h12.1v4.5h-12.1C170.2,38.5,170.2,34,170.2,34z M170.7,44.3h13.6v4.6h-19.4v-25h18.9v4.7h-13.2V44.3z"/>
<path id="_1" d="M205.2,48.9l-7.8-12.1l4.7-2.8l9.7,14.9H205.2z M188.9,48.9v-25h5.8v25H188.9z M193,38.9V34h8.7v4.8H193z
	 M202.6,37.1l-5.3-0.7l8.1-12.5h6.1L202.6,37.1z"/>
<path id="_2" d="M226.2,49.4c-2,0-3.7-0.3-5.4-1c-1.7-0.6-3.1-1.5-4.3-2.7c-1.2-1.2-2.2-2.5-2.8-4.1c-0.7-1.6-1-3.3-1-5.2
	c0-1.9,0.3-3.6,1-5.2c0.7-1.6,1.6-2.9,2.9-4.1c1.2-1.2,2.7-2.1,4.3-2.7c1.6-0.6,3.4-1,5.4-1c2.2,0,4.1,0.4,5.9,1.1
	c1.7,0.8,3.2,1.9,4.4,3.3l-3.7,3.4c-0.8-1-1.8-1.7-2.8-2.2c-1.1-0.5-2.2-0.7-3.4-0.7c-1.2,0-2.2,0.2-3.2,0.6c-1,0.4-1.8,0.9-2.5,1.6
	c-0.7,0.7-1.3,1.6-1.7,2.5c-0.4,1-0.6,2.1-0.6,3.2c0,1.2,0.2,2.3,0.6,3.3c0.4,1,1,1.8,1.7,2.5c0.7,0.7,1.6,1.3,2.5,1.7
	c1,0.4,2.1,0.6,3.2,0.6c1.2,0,2.4-0.3,3.4-0.7c1-0.5,2-1.2,2.8-2.2l3.7,3.4c-1.2,1.4-2.7,2.6-4.4,3.3
	C230.4,49,228.4,49.4,226.2,49.4z"/>
<polygon id="_3" points="240.4,48.9 240.4,23.9 263.2,23.9 263.2,48.9 257.4,48.9 257.4,27.3 258.7,28.6 244.8,28.6 246.1,27.3 
	246.1,48.9 "/>
<path id="_4" d="M269.4,48.9v-25h10.8c2.2,0,4.2,0.4,5.8,1.1c1.6,0.7,2.9,1.8,3.8,3.1s1.3,3,1.3,4.9c0,1.8-0.4,3.5-1.3,4.8
	c-0.9,1.4-2.1,2.4-3.8,3.1c-1.6,0.7-3.6,1.1-5.8,1.1h-7.6l2.6-2.6v9.5H269.4L269.4,48.9z M275.2,40.1l-2.6-2.7h7.3
	c1.8,0,3.1-0.4,4-1.1c0.9-0.8,1.3-1.8,1.3-3.2c0-1.4-0.4-2.5-1.3-3.2c-0.9-0.8-2.2-1.1-4-1.1h-7.3l2.6-2.8
	C275.2,25.9,275.2,40.1,275.2,40.1z"/>
<path id="_5" d="M300.3,34h12.1v4.5h-12.1C300.3,38.5,300.3,34,300.3,34z M300.7,44.3h13.6v4.6h-19.4v-25h18.9v4.7h-13.2V44.3z"/>
<path id="_6" d="M330.8,49.4c-1.9,0-3.7-0.3-5.4-1c-1.7-0.6-3.1-1.5-4.3-2.7c-1.2-1.2-2.2-2.5-2.8-4.1c-0.7-1.6-1-3.3-1-5.2
	c0-1.9,0.3-3.6,1-5.2c0.7-1.6,1.6-2.9,2.9-4.1c1.2-1.2,2.7-2.1,4.3-2.7c1.7-0.6,3.5-1,5.4-1c2.2,0,4.1,0.4,5.9,1.1
	c1.8,0.8,3.2,1.9,4.4,3.3l-3.7,3.4c-0.9-1-1.8-1.7-2.9-2.2c-1-0.5-2.2-0.7-3.4-0.7c-1.2,0-2.2,0.2-3.2,0.6c-1,0.4-1.8,0.9-2.5,1.6
	c-0.7,0.7-1.3,1.6-1.7,2.5c-0.4,1-0.6,2.1-0.6,3.2c0,1.2,0.2,2.3,0.6,3.3c0.4,1,1,1.8,1.7,2.5c0.7,0.7,1.6,1.3,2.5,1.7
	c1,0.4,2,0.6,3.2,0.6c1.3,0,2.4-0.3,3.4-0.7c1.1-0.5,2-1.2,2.9-2.2l3.7,3.4c-1.2,1.4-2.7,2.6-4.4,3.3C335,49,333,49.4,330.8,49.4
	L330.8,49.4z"/>
<path id="_7" d="M371.7,46.4V28.6h-8.6l-0.1,3.6c-0.1,1.5-0.2,3-0.3,4.4c-0.1,1.4-0.3,2.7-0.6,3.8c-0.3,1.1-0.6,2.1-1,2.9
	c-0.4,0.8-0.9,1.3-1.5,1.7l-6.2-0.8c0.9,0,1.6-0.3,2.1-0.9c0.6-0.6,1-1.5,1.3-2.6c0.3-1.1,0.6-2.5,0.7-4c0.2-1.5,0.3-3.2,0.3-5
	l0.3-7.9h19.2v22.5L371.7,46.4L371.7,46.4z M352.5,54.1l0-9.9h28.4v9.9h-5.4v-5.2h-17.7v5.2H352.5L352.5,54.1z"/>
<path id="_8" d="M396.8,49.4c-2,0-3.8-0.3-5.5-1c-1.7-0.6-3.1-1.5-4.4-2.7c-1.2-1.2-2.2-2.5-2.9-4.1c-0.7-1.6-1-3.3-1-5.2
	c0-1.8,0.3-3.6,1-5.1c0.7-1.6,1.7-2.9,2.9-4.1c1.2-1.2,2.7-2.1,4.4-2.7c1.7-0.7,3.5-1,5.4-1c2,0,3.8,0.3,5.5,1
	c1.7,0.6,3.1,1.5,4.3,2.7c1.2,1.2,2.2,2.5,2.9,4.1c0.7,1.5,1,3.3,1,5.2s-0.3,3.6-1,5.2c-0.7,1.6-1.7,2.9-2.9,4.1
	c-1.2,1.1-2.7,2.1-4.3,2.7C400.6,49.1,398.8,49.4,396.8,49.4z M396.8,44.5c1.1,0,2.1-0.2,3.1-0.6c0.9-0.4,1.8-0.9,2.5-1.7
	c0.7-0.7,1.3-1.5,1.7-2.5c0.4-1,0.6-2.1,0.6-3.3c0-1.2-0.2-2.3-0.6-3.2c-0.4-1-0.9-1.8-1.6-2.5c-0.7-0.7-1.5-1.3-2.5-1.6
	c-0.9-0.4-2-0.6-3.1-0.6c-1.1,0-2.2,0.2-3.1,0.6c-0.9,0.4-1.8,0.9-2.5,1.6c-0.7,0.7-1.3,1.6-1.7,2.5c-0.4,1-0.6,2.1-0.6,3.2
	c0,1.2,0.2,2.2,0.6,3.2c0.4,1,1,1.8,1.7,2.5c0.7,0.7,1.5,1.3,2.5,1.7S395.6,44.5,396.8,44.5z"/>
<path id="_9" d="M426.8,49.4c-1.9,0-3.7-0.3-5.4-1c-1.7-0.6-3.1-1.5-4.3-2.7c-1.2-1.2-2.2-2.5-2.8-4.1c-0.7-1.6-1-3.3-1-5.2
	c0-1.9,0.3-3.6,1-5.2c0.7-1.6,1.6-2.9,2.9-4.1c1.2-1.2,2.7-2.1,4.3-2.7c1.7-0.6,3.5-1,5.4-1c2.2,0,4.1,0.4,5.9,1.1
	c1.8,0.8,3.2,1.9,4.4,3.3l-3.7,3.4c-0.9-1-1.8-1.7-2.9-2.2c-1-0.5-2.2-0.7-3.4-0.7c-1.2,0-2.2,0.2-3.2,0.6c-1,0.4-1.8,0.9-2.5,1.6
	c-0.7,0.7-1.3,1.6-1.7,2.5c-0.4,1-0.6,2.1-0.6,3.2c0,1.2,0.2,2.3,0.6,3.3c0.4,1,1,1.8,1.7,2.5c0.7,0.7,1.5,1.3,2.5,1.7
	c1,0.4,2,0.6,3.2,0.6c1.3,0,2.4-0.3,3.4-0.7c1.1-0.5,2-1.2,2.9-2.2l3.7,3.4c-1.2,1.4-2.7,2.6-4.4,3.3C430.9,49,429,49.4,426.8,49.4
	L426.8,49.4z"/>
<polygon id="_10" points="446.1,48.9 446.1,27.3 447.4,28.6 438.1,28.6 438.1,23.9 459.8,23.9 459.8,28.6 450.5,28.6 451.8,27.3 
	451.8,48.9 "/>
<path id="_11" d="M459.4,48.9l11.2-25h5.7l11.2,25h-6.1l-9.1-22.1h2.3l-9.2,22.1H459.4z M464.9,43.6l1.5-4.4h12.9l1.6,4.4H464.9
	L464.9,43.6z"/>
<path id="_12" d="M490.8,48.9v-25h11.6c2.9,0,5.2,0.6,6.8,1.7c1.6,1.1,2.4,2.7,2.4,4.8c0,2.1-0.8,3.6-2.3,4.8
	c-1.5,1.1-3.5,1.7-6.1,1.7l0.7-1.5c2.8,0,5,0.6,6.5,1.7c1.5,1.1,2.3,2.7,2.3,4.9c0,2.2-0.8,3.9-2.5,5.2s-4.1,1.9-7.3,1.9H490.8
	L490.8,48.9z M496.5,44.7h6.4c1.3,0,2.4-0.3,3.1-0.8c0.7-0.5,1-1.3,1-2.4c0-1-0.3-1.8-1-2.3c-0.7-0.5-1.7-0.8-3.1-0.8h-6.4
	C496.5,38.3,496.5,44.7,496.5,44.7z M496.5,34.3h5.4c1.3,0,2.2-0.3,2.9-0.8c0.6-0.5,1-1.3,1-2.3c0-1-0.3-1.8-1-2.3
	c-0.7-0.5-1.6-0.8-2.9-0.8h-5.4C496.5,28.2,496.5,34.3,496.5,34.3z"/>
<path id="_13" d="M514.6,48.9l11.1-25h5.7l11.2,25h-6.1l-9.1-22.1h2.3l-9.2,22.1H514.6L514.6,48.9z M520.2,43.6l1.5-4.4h12.9
	l1.6,4.4H520.2z"/>
<path d="M175.1,61.8h1.5v14h-1.5V61.8z M166.4,75.7h-1.5v-14h1.5V75.7z M175.3,69.3h-9.1V68h9.1V69.3z"/>
<polygon id="_1_0" points="181.3,75.7 181.3,61.8 182.8,61.8 182.8,73.4 191.7,61.8 193.1,61.8 193.1,75.7 191.6,75.7 191.6,64.2 
	182.7,75.7 "/>
<path id="_2_1" d="M196.1,74.1l0.5-1.1c0.6,0.5,1.3,0.9,2.1,1.2c0.8,0.3,1.5,0.4,2.3,0.4c0.8,0,1.5-0.1,2.1-0.3
	c0.7-0.2,1.2-0.6,1.6-1s0.6-1,0.6-1.6c0-0.8-0.3-1.4-1-1.9c-0.7-0.4-1.5-0.7-2.7-0.7h-3v-1.2h2.9c1,0,1.7-0.2,2.3-0.6
	c0.6-0.4,0.8-1,0.8-1.7c0-0.5-0.1-1-0.5-1.4c-0.3-0.4-0.7-0.7-1.3-0.9c-0.5-0.2-1.1-0.3-1.8-0.3c-0.7,0-1.4,0.1-2.1,0.3
	c-0.7,0.2-1.4,0.5-2.1,0.9l-0.5-1.2c0.8-0.5,1.7-0.8,2.6-1c0.9-0.2,1.8-0.3,2.6-0.2c0.8,0.1,1.6,0.3,2.3,0.6
	c0.7,0.3,1.2,0.7,1.6,1.3c0.4,0.5,0.6,1.1,0.6,1.8c0,0.7-0.2,1.3-0.5,1.8c-0.3,0.5-0.8,0.9-1.4,1.2c-0.6,0.3-1.3,0.4-2.1,0.4
	l0.1-0.4c0.9,0,1.7,0.1,2.4,0.4c0.7,0.3,1.2,0.7,1.6,1.2c0.4,0.6,0.6,1.2,0.6,1.9c0,0.7-0.2,1.3-0.5,1.8c-0.3,0.5-0.8,1-1.4,1.3
	c-0.6,0.3-1.3,0.6-2,0.7c-0.7,0.1-1.5,0.2-2.3,0.1c-0.8-0.1-1.6-0.2-2.4-0.5C197.5,75,196.8,74.6,196.1,74.1L196.1,74.1z"/>
<path id="_3_2" d="M215.7,75.7v-14h1.4v12.7h8.4V61.8h1.5v14H215.7L215.7,75.7z M227.9,79v-3.7l0.4,0.4h-2.7v-1.3h3.7V79H227.9
	L227.9,79z"/>
<path id="_4_3" d="M233.5,68h7.4v1.3h-7.4V68z M233.7,74.5h8.4v1.3h-9.9v-14h9.6V63h-8.1V74.5z"/>
<path id="_5_4" d="M244.3,75.9c-0.2,0-0.4,0-0.6,0c-0.2,0-0.4-0.1-0.6-0.1l0.1-1.3c0.2,0,0.4,0.1,0.7,0.1c0.6,0,1.1-0.2,1.4-0.7
	c0.4-0.5,0.6-1.2,0.8-2.2c0.2-1,0.3-2.3,0.4-3.8l0.2-6h9.5v14h-1.4V62.7l0.4,0.4h-7.5l0.4-0.4l-0.2,5.1c0,1.4-0.1,2.6-0.3,3.6
	c-0.1,1-0.4,1.9-0.6,2.5c-0.3,0.7-0.6,1.2-1.1,1.5C245.5,75.7,245,75.9,244.3,75.9L244.3,75.9z"/>
<path id="_6_5" d="M259,75.7l6.4-14h1.4l6.4,14h-1.5l-5.9-13.1h0.6l-5.9,13.1H259z M261.5,72l0.4-1.2h8.1l0.4,1.2H261.5z"/>
<path id="_7_6" d="M290.4,75V63h-6.7l-0.1,3.4c0,1.1-0.1,2.1-0.2,3c-0.1,1-0.2,1.8-0.4,2.6c-0.2,0.8-0.4,1.4-0.7,1.9
	c-0.3,0.5-0.7,0.8-1.2,0.8l-1.6-0.3c0.5,0,1-0.1,1.3-0.6c0.4-0.4,0.6-1,0.8-1.7s0.3-1.6,0.4-2.6s0.1-2.1,0.2-3.2l0.2-4.5h9.4V75
	C291.8,75,290.4,75,290.4,75z M279,78.9l0-4.4h15v4.4h-1.4v-3.1h-12.2l0,3.1H279L279,78.9z"/>
<path id="_8_7" d="M297,75.7v-14h5.2c1.2,0,2.2,0.2,3.1,0.6c0.8,0.4,1.5,0.9,2,1.6c0.5,0.7,0.7,1.6,0.7,2.6c0,1-0.2,1.8-0.7,2.5
	c-0.5,0.7-1.1,1.3-2,1.7c-0.8,0.4-1.9,0.6-3.1,0.6h-4.4l0.7-0.7v5.1C298.4,75.7,297,75.7,297,75.7z M298.4,70.8l-0.7-0.7h4.4
	c1.4,0,2.5-0.3,3.2-0.9c0.7-0.6,1.1-1.5,1.1-2.6c0-1.1-0.4-2-1.1-2.6c-0.7-0.6-1.8-0.9-3.2-0.9h-4.4l0.7-0.7V70.8z"/>
<path id="_9_8" d="M326.2,75.7l-4.6-7l1.3-0.7l5.1,7.7C328,75.7,326.2,75.7,326.2,75.7z M318.6,69.3V68h4v1.3H318.6z M322.9,68.9
	l-1.4-0.2l4.5-6.9h1.6L322.9,68.9z M310.5,75.7h-1.7l5.1-7.7l1.3,0.7C315.1,68.8,310.5,75.7,310.5,75.7z M319.1,75.7h-1.4v-14h1.4
	V75.7z M318.1,69.3h-4V68h4V69.3z M313.8,68.9l-4.7-7.2h1.6l4.4,6.9L313.8,68.9L313.8,68.9z"/>
<path id="_10_9" d="M328.1,75.7l6.4-14h1.4l6.4,14h-1.5l-5.9-13.1h0.6l-5.9,13.1H328.1z M330.6,72l0.4-1.2h8.1l0.4,1.2H330.6z"/>
<path id="_11_10" d="M345,75.7v-14h5.8c1.5,0,2.6,0.3,3.5,0.9c0.8,0.6,1.3,1.5,1.3,2.7c0,1.1-0.4,2-1.2,2.6
	c-0.8,0.6-1.9,0.9-3.2,0.9l0.3-0.5c1.5,0,2.7,0.3,3.6,0.9c0.8,0.6,1.2,1.5,1.2,2.7c0,1.2-0.4,2.1-1.3,2.8c-0.8,0.7-2.1,1-3.8,1
	L345,75.7L345,75.7z M346.5,74.6h4.7c1.2,0,2.1-0.2,2.7-0.7c0.6-0.4,0.9-1.1,0.9-2c0-0.9-0.3-1.6-0.9-2s-1.5-0.6-2.7-0.6h-4.7V74.6z
	 M346.5,68.1h4.3c1.1,0,1.9-0.2,2.5-0.6c0.6-0.4,0.9-1.1,0.9-1.9c0-0.8-0.3-1.5-0.9-1.9c-0.6-0.4-1.4-0.6-2.5-0.6h-4.3
	C346.5,63,346.5,68.1,346.5,68.1z"/>
<path id="_12_11" d="M357.9,75.7l6.4-14h1.5l6.4,14h-1.6l-5.9-13.1h0.6l-5.9,13.1H357.9z M360.4,72l0.4-1.2h8.1l0.4,1.2H360.4z"/>
<path id="_13_12" d="M390.3,61.8h1.5v14h-1.5V61.8z M381.5,75.7H380v-14h1.5V75.7z M390.4,69.3h-9V68h9V69.3z"/>
<path id="_14" d="M394.4,75.7l6.4-14h1.5l6.4,14H407l-5.9-13.1h0.6l-5.9,13.1H394.4L394.4,75.7z M396.9,72l0.4-1.2h8.1l0.4,1.2
	H396.9z"/>
<path id="_15" d="M416.5,75.7v-14h5.2c1.2,0,2.2,0.2,3.1,0.6c0.8,0.4,1.5,0.9,2,1.6c0.5,0.7,0.7,1.6,0.7,2.6c0,1-0.2,1.8-0.7,2.5
	c-0.4,0.7-1.1,1.3-2,1.7c-0.8,0.4-1.9,0.6-3.1,0.6h-4.4l0.7-0.7v5.1C418,75.7,416.5,75.7,416.5,75.7z M418,70.8l-0.7-0.7h4.4
	c1.4,0,2.5-0.3,3.2-0.9c0.7-0.6,1.1-1.5,1.1-2.6c0-1.1-0.4-2-1.1-2.6c-0.7-0.6-1.8-0.9-3.2-0.9h-4.4l0.7-0.7V70.8z"/>
<path id="_16" d="M427.7,75.7l6.4-14h1.5l6.4,14h-1.5l-5.9-13.1h0.6l-5.9,13.1H427.7z M430.2,72l0.4-1.2h8.1l0.4,1.2H430.2z"/>
<path id="_17" d="M454.2,75.7l-5.4-7l1.2-0.7l5.9,7.7C455.9,75.7,454.2,75.7,454.2,75.7z M444.6,75.7v-14h1.4v14H444.6z M445.6,69.3
	V68h4.4v1.3H445.6z M450.1,68.9l-1.4-0.2l5.2-6.9h1.6L450.1,68.9z"/>
<path id="_18" d="M455.9,75.7l6.4-14h1.4l6.4,14h-1.5l-5.9-13.1h0.6l-5.9,13.1H455.9z M458.4,72l0.4-1.2h8.1l0.4,1.2H458.4z"/>
</svg>
