<?xml version="1.0" encoding="UTF-8"?>
<!DOCTYPE svg PUBLIC "-//W3C//DTD SVG 1.0//EN" "http://www.w3.org/TR/2001/REC-SVG-20010904/DTD/svg10.dtd">
<!-- Creator: CorelDRAW 2021.5 -->
<svg xmlns="http://www.w3.org/2000/svg" xml:space="preserve" width="580px" height="100px" version="1.0" style="shape-rendering:geometricPrecision; text-rendering:geometricPrecision; image-rendering:optimizeQuality; fill-rule:evenodd; clip-rule:evenodd"
viewBox="0 0 1029.57 177.85"
 xmlns:xlink="http://www.w3.org/1999/xlink"
 xmlns:xodm="http://www.corel.com/coreldraw/odm/2003">
 <defs>
  <style type="text/css">
   <![CDATA[
    .fil0 {fill:none}
    .fil2 {fill:black;fill-rule:nonzero}
    .fil1 {fill:#141414;fill-rule:nonzero}
   ]]>
  </style>
 </defs>
 <g id="Layer_x0020_1">
  <metadata id="CorelCorpID_0Corel-Layer"/>
  <rect class="fil0" width="1029.57" height="177.85"/>
  <g id="_2370881060992">
   <path class="fil1" d="M135.32 130.13c-1.74,0 -3.13,-1.41 -3.13,-3.13l0 -35.27 -71.2 0 0 32.28c0,1.74 -1.41,3.13 -3.13,3.13 -1.71,0 -3.13,-1.41 -3.13,-3.13l0 -35.41c0,-1.74 1.42,-3.13 3.13,-3.13l77.46 0c1.75,0 3.13,1.41 3.13,3.13l0 38.4c0.03,1.72 -1.38,3.13 -3.13,3.13z"/>
   <path class="fil1" d="M84.52 110.3c-0.61,0 -1.2,-0.17 -1.71,-0.52 -0.87,-0.59 -1.42,-1.58 -1.42,-2.61l0 -18.55c0,-1.74 1.42,-3.12 3.13,-3.12l24.12 0c1.74,0 3.13,1.41 3.13,3.12l0 18.55c0,1.05 -0.54,2.04 -1.43,2.63 -0.9,0.59 -2.03,0.66 -2.99,0.24l-10.61 -4.73 -10.99 4.73c-0.38,0.16 -0.8,0.26 -1.23,0.26zm3.16 -18.57l0 10.64 7.88 -3.39c0.8,-0.36 1.72,-0.36 2.52,0.02l7.45 3.32 0 -10.59 -17.85 0z"/>
   <g id="path3830_00000124841018464587451690000008749452843755366045_">
    <path class="fil1" d="M104.69 168.88l-59.37 0c-1.74,0 -3.13,-1.41 -3.13,-3.12 0,-1.75 1.42,-3.13 3.13,-3.13l59.39 0c14.71,0 28.28,-8.01 35.44,-20.88l4.47 -8.07c0.56,-1.01 0.68,-2.19 0.3,-3.29 -0.37,-1.11 -1.17,-1.98 -2.23,-2.45 -1.77,-0.77 -3.81,-0.23 -4.94,1.32l-10.45 14.24c-3.95,5.36 -10.28,8.58 -16.96,8.58l-14.45 0c-1.74,0 -3.13,-1.41 -3.13,-3.12 0,-1.75 1.41,-3.13 3.13,-3.13l14.45 0c4.68,0 9.12,-2.26 11.9,-6.03l10.45 -14.23c2.89,-3.96 8.04,-5.32 12.54,-3.34 2.66,1.17 4.73,3.43 5.65,6.18 0.91,2.76 0.66,5.79 -0.76,8.33l-4.47 8.07c-8.28,14.83 -23.95,24.07 -40.96,24.07z"/>
   </g>
   <g id="path3834_00000077321607918782853870000007897490392563422857_">
    <path class="fil1" d="M105.65 152.06l-19.55 0c-1.74,0 -3.13,-1.41 -3.13,-3.13 0,-1.72 1.41,-3.13 3.13,-3.13l19.55 0c2.29,0 4.14,-1.86 4.14,-4.14 0,-2.28 -1.85,-4.14 -4.14,-4.14l-16.52 0c-1.13,0 -2.18,-0.61 -2.72,-1.6 -3.68,-6.52 -10.59,-10.57 -18.05,-10.57 -8.97,0 -17.23,5.72 -20.07,13.93 -0.57,1.65 -2.36,2.5 -4,1.93 -1.65,-0.56 -2.5,-2.35 -1.93,-4 3.69,-10.68 14.37,-18.14 26,-18.14 9.1,0 17.58,4.61 22.54,12.17l14.75 0c5.74,0 10.43,4.68 10.43,10.42 0,5.72 -4.69,10.4 -10.43,10.4z"/>
   </g>
   <path class="fil1" d="M45.32 168.88l-20.3 0c-1.75,0 -3.13,-1.41 -3.13,-3.12l0 -39.77c0,-1.74 1.41,-3.13 3.13,-3.13l20.28 0c1.74,0 3.13,1.41 3.13,3.13l0 39.77c0.02,1.71 -1.39,3.12 -3.11,3.12zm-17.15 -6.28l14.02 0 0 -33.5 -14.02 0 0 33.5z"/>
   <g id="path3840_00000001633974603016707650000007182599194454858392_">
    <path class="fil1" d="M65.53 31c-0.68,0 -1.36,-0.21 -1.95,-0.68 -1.36,-1.08 -1.58,-3.06 -0.49,-4.4 4.33,-5.44 9.93,-9.93 16.21,-12.97 6.33,-3.08 13.36,-4.7 20.4,-4.7l59.39 0c1.74,0 3.13,1.41 3.13,3.13 0,1.71 -1.41,3.13 -3.13,3.13l-59.39 0c-12.42,0 -23.98,5.57 -31.69,15.29 -0.62,0.78 -1.54,1.2 -2.48,1.2z"/>
   </g>
   <g id="path3844_00000067946549169430729420000003551930243963335298_">
    <path class="fil1" d="M42.17 46.79c-1.74,0 -3.13,-1.41 -3.13,-3.13 0,-1.72 1.41,-3.13 3.13,-3.13 6.89,0 12.49,-5.6 12.49,-12.49 0,-1.75 1.42,-3.13 3.13,-3.13 1.72,0 3.16,1.38 3.16,3.1 0,10.36 -8.43,18.78 -18.78,18.78z"/>
   </g>
   <g id="path3848_00000067922454971742331910000001864245281078776992_">
    <path class="fil1" d="M57.79 79.05c-1.74,0 -3.13,-1.41 -3.13,-3.13 0,-6.9 -5.6,-12.5 -12.49,-12.5 -1.74,0 -3.13,-1.41 -3.13,-3.13 0,-1.71 1.41,-3.12 3.13,-3.12 10.35,0 18.78,8.42 18.78,18.77 0,1.7 -1.41,3.11 -3.16,3.11z"/>
   </g>
   <g id="path3852_00000168102223454001023960000017228658541386623675_">
    <path class="fil1" d="M120.31 79.05c-1.74,0 -3.13,-1.41 -3.13,-3.13 0,-10.36 8.43,-18.78 18.78,-18.78 1.74,0 3.13,1.41 3.13,3.13 0,1.72 -1.41,3.13 -3.13,3.13 -6.9,0 -12.5,5.6 -12.5,12.49 -0.02,1.75 -1.43,3.16 -3.15,3.16z"/>
   </g>
   <g id="path3856_00000044873046601429713950000010429674831916900760_">
    <path class="fil1" d="M73.96 79.14l-32 0c-1.74,0 -3.13,-1.41 -3.13,-3.13l0 -48.09c0,-1.74 1.41,-3.13 3.13,-3.13l81.48 0c1.74,0 3.13,1.41 3.13,3.13 0,1.72 -1.41,3.13 -3.13,3.13l-78.35 0 0 41.81 28.87 0c1.74,0 3.13,1.41 3.13,3.13 0,1.72 -1.39,3.15 -3.13,3.15z"/>
   </g>
   <g id="path3860_00000078046066573398554280000001861012188345922991_">
    <path class="fil1" d="M136.12 79.14l-33.93 0c-1.74,0 -3.13,-1.41 -3.13,-3.13 0,-1.71 1.42,-3.13 3.13,-3.13l30.8 0 0 -22.75c0,-1.74 1.41,-3.13 3.13,-3.13 1.72,0 3.13,1.41 3.13,3.13l0 25.88c0.03,1.74 -1.39,3.13 -3.13,3.13z"/>
   </g>
   <g id="path3864_00000016778400545580151410000000448957603925757078_">
    <path class="fil1" d="M139.98 53.26c-6.35,0 -12.59,-2.23 -17.5,-6.42l-14.17 4.14c-0.96,0.28 -1.95,0.42 -2.92,0.42 -4.51,0 -8.68,-2.96 -10,-7.51 -0.77,-2.68 -0.47,-5.48 0.87,-7.92 1.35,-2.45 3.56,-4.22 6.22,-4.99l27.6 -8.07c1.67,-0.5 3.41,0.47 3.88,2.14 0.49,1.67 -0.47,3.41 -2.14,3.88l-21.16 6.19c0,0 -0.02,0 -0.02,0l-6.4 1.88c-1.06,0.31 -1.95,1.01 -2.47,2 -0.52,0.99 -0.66,2.1 -0.35,3.15 0.63,2.19 2.94,3.46 5.15,2.83l15.86 -4.64c1.08,-0.31 2.26,-0.02 3.08,0.78 5.34,5.22 13.13,7.18 20.28,5.08 4.22,-1.22 7.86,-3.72 10.55,-7.18 1.05,-1.36 3.03,-1.62 4.4,-0.56 1.36,1.06 1.62,3.03 0.56,4.4 -3.51,4.52 -8.24,7.74 -13.74,9.34 -2.52,0.68 -5.06,1.06 -7.58,1.06z"/>
   </g>
   <path class="fil1" d="M179.37 54.29l-20.28 0c-1.74,0 -3.13,-1.41 -3.13,-3.12l0 -39.77c0,-1.74 1.41,-3.13 3.13,-3.13l20.28 0c1.74,0 3.13,1.41 3.13,3.13l0 39.77c0.02,1.71 -1.39,3.12 -3.13,3.12zm-17.15 -6.28l14.02 0 0 -33.48 -14.02 0 0 33.48z"/>
   <g id="path3870_00000147186167675263844220000003079367458671007157_">
    <path class="fil1" d="M89.04 64.93c-7.15,0 -12.96,-5.81 -12.96,-12.97 0,-7.15 5.81,-12.96 12.96,-12.96 7.15,0 12.97,5.81 12.97,12.96 0.02,7.16 -5.82,12.97 -12.97,12.97zm0 -19.67c-3.69,0 -6.7,3.01 -6.7,6.7 0,3.7 3.01,6.71 6.7,6.71 3.69,0 6.71,-3.01 6.71,-6.71 0,-3.69 -3.02,-6.7 -6.71,-6.7z"/>
   </g>
   <g id="path3874_00000013194017885472851100000004662773089389769132_">
    <path class="fil1" d="M88.08 79.12c-0.1,0 -0.22,0 -0.31,-0.03 -0.09,0 -0.21,-0.02 -0.31,-0.04 -0.21,-0.05 -0.4,-0.1 -0.59,-0.19 -0.18,-0.07 -0.37,-0.17 -0.54,-0.28 -0.09,-0.05 -0.16,-0.12 -0.23,-0.19 -0.07,-0.07 -0.16,-0.14 -0.24,-0.21 -0.07,-0.07 -0.14,-0.14 -0.21,-0.24 -0.07,-0.07 -0.11,-0.16 -0.19,-0.26 -0.11,-0.16 -0.21,-0.35 -0.28,-0.54 -0.07,-0.19 -0.14,-0.37 -0.19,-0.59 -0.02,-0.09 -0.02,-0.21 -0.04,-0.3 0,-0.1 -0.03,-0.21 -0.03,-0.31 0,-0.09 0,-0.21 0.03,-0.31 0,-0.09 0.02,-0.21 0.04,-0.3 0.05,-0.21 0.1,-0.4 0.19,-0.59 0.07,-0.19 0.19,-0.38 0.28,-0.54 0.05,-0.09 0.12,-0.16 0.19,-0.26 0.07,-0.07 0.14,-0.16 0.21,-0.23 0.08,-0.07 0.14,-0.14 0.24,-0.22 0.07,-0.06 0.16,-0.11 0.23,-0.18 0.17,-0.12 0.36,-0.22 0.54,-0.29 0.19,-0.07 0.38,-0.14 0.59,-0.18 0.1,-0.03 0.22,-0.03 0.31,-0.05 0.21,-0.03 0.42,-0.03 0.61,0 0.1,0 0.21,0.02 0.31,0.05 0.21,0.04 0.4,0.09 0.59,0.18 0.18,0.07 0.37,0.19 0.54,0.29 0.09,0.04 0.16,0.12 0.26,0.18 0.07,0.08 0.16,0.15 0.23,0.22 0.07,0.07 0.14,0.14 0.21,0.23 0.07,0.07 0.12,0.17 0.19,0.26 0.12,0.16 0.21,0.35 0.28,0.54 0.07,0.19 0.15,0.38 0.19,0.59 0.03,0.09 0.05,0.21 0.05,0.3 0.02,0.1 0.02,0.22 0.02,0.31 0,0.1 0,0.21 -0.02,0.31 0,0.09 -0.03,0.21 -0.05,0.3 -0.04,0.22 -0.09,0.4 -0.19,0.59 -0.07,0.19 -0.18,0.38 -0.28,0.54 -0.05,0.1 -0.12,0.17 -0.19,0.26 -0.07,0.07 -0.14,0.17 -0.21,0.24 -0.07,0.07 -0.14,0.14 -0.23,0.21 -0.07,0.07 -0.17,0.12 -0.26,0.19 -0.17,0.11 -0.36,0.21 -0.54,0.28 -0.19,0.07 -0.38,0.14 -0.59,0.19 -0.1,0.02 -0.21,0.02 -0.31,0.04 -0.09,0.03 -0.19,0.03 -0.3,0.03z"/>
   </g>
  </g>
  <path class="fil2" d="M236.8 88.47c-3.44,0 -6.63,-0.56 -9.58,-1.68 -2.94,-1.12 -5.5,-2.72 -7.66,-4.8 -2.17,-2.08 -3.85,-4.52 -5.06,-7.32 -1.21,-2.8 -1.81,-5.87 -1.81,-9.22 0,-3.35 0.6,-6.43 1.81,-9.23 1.21,-2.79 2.91,-5.23 5.09,-7.31 2.18,-2.08 4.74,-3.68 7.66,-4.8 2.93,-1.13 6.13,-1.69 9.61,-1.69 3.86,0 7.35,0.67 10.46,2 3.12,1.34 5.74,3.3 7.86,5.89l-6.62 6.11c-1.52,-1.74 -3.22,-3.05 -5.09,-3.92 -1.86,-0.86 -3.9,-1.3 -6.1,-1.3 -2.08,0 -3.99,0.34 -5.73,1.02 -1.73,0.68 -3.24,1.65 -4.51,2.92 -1.28,1.28 -2.26,2.78 -2.96,4.52 -0.7,1.74 -1.05,3.67 -1.05,5.79 0,2.12 0.35,4.05 1.05,5.79 0.7,1.73 1.68,3.24 2.96,4.51 1.27,1.27 2.78,2.25 4.51,2.93 1.74,0.68 3.65,1.02 5.73,1.02 2.2,0 4.24,-0.44 6.1,-1.31 1.87,-0.87 3.57,-2.19 5.09,-3.97l6.62 6.1c-2.12,2.59 -4.74,4.56 -7.86,5.92 -3.11,1.36 -6.62,2.03 -10.52,2.03z"/>
  <polygon id="_1" class="fil2" points="261.92,87.71 261.92,43.19 272.16,43.19 272.16,72.19 293.41,43.19 303.08,43.19 303.08,87.71 292.9,87.71 292.9,58.77 271.65,87.71 "/>
  <polygon id="_2" class="fil2" points="314.14,87.71 314.14,43.19 345.57,43.19 345.5,51.58 321.97,51.58 324.32,49.23 324.38,87.71 "/>
  <path id="_3" class="fil2" d="M353.39 79.31c2.46,0.73 4.53,0.93 6.2,0.61 1.68,-0.32 3.17,-1.49 4.49,-3.53l2.16 -3.25 0.95 -1.08 14.76 -28.87 10.11 0 -18.95 35.24c-1.7,3.17 -3.7,5.61 -6.01,7.31 -2.31,1.7 -4.85,2.66 -7.6,2.89 -2.76,0.24 -5.62,-0.26 -8.59,-1.49l2.48 -7.83zm13.61 1.34l-20.1 -37.46 11.01 0 14.75 29.89 -5.66 7.57z"/>
  <path id="_4" class="fil2" d="M396.96 87.71l0 -44.52 19.27 0c3.99,0 7.43,0.64 10.31,1.94 2.88,1.29 5.11,3.14 6.68,5.56 1.57,2.42 2.35,5.3 2.35,8.65 0,3.31 -0.78,6.17 -2.35,8.59 -1.57,2.42 -3.8,4.27 -6.68,5.56 -2.88,1.3 -6.32,1.95 -10.31,1.95l-13.54 0 4.58 -4.65 0 16.92 -10.31 0zm10.31 -15.77l-4.58 -4.9 12.97 0c3.18,0 5.56,-0.68 7.13,-2.04 1.56,-1.35 2.35,-3.24 2.35,-5.66 0,-2.46 -0.79,-4.36 -2.35,-5.72 -1.57,-1.36 -3.95,-2.04 -7.13,-2.04l-12.97 0 4.58 -4.9 0 25.26z"/>
  <path id="_5" class="fil2" d="M472.91 43.19l10.3 0 0 44.52 -10.3 0 0 -44.52zm-20.23 44.52l-10.3 0 0 -44.52 10.3 0 0 44.52zm20.99 -18.25l-21.75 0 0 -8.72 21.75 0 0 8.72z"/>
  <path id="_6" class="fil2" d="M515.66 88.47c-3.52,0 -6.78,-0.57 -9.77,-1.71 -2.99,-1.15 -5.58,-2.76 -7.76,-4.84 -2.18,-2.08 -3.88,-4.51 -5.09,-7.31 -1.21,-2.8 -1.81,-5.85 -1.81,-9.16 0,-3.31 0.6,-6.36 1.81,-9.16 1.21,-2.8 2.92,-5.24 5.12,-7.32 2.21,-2.08 4.79,-3.69 7.76,-4.83 2.97,-1.14 6.19,-1.72 9.67,-1.72 3.52,0 6.76,0.58 9.7,1.72 2.95,1.14 5.52,2.75 7.7,4.83 2.18,2.08 3.89,4.51 5.12,7.29 1.23,2.77 1.84,5.84 1.84,9.19 0,3.31 -0.61,6.37 -1.84,9.19 -1.23,2.82 -2.94,5.26 -5.12,7.31 -2.18,2.06 -4.75,3.66 -7.7,4.81 -2.94,1.14 -6.16,1.71 -9.63,1.71zm-0.07 -8.77c1.99,0 3.83,-0.34 5.5,-1.02 1.68,-0.68 3.15,-1.66 4.43,-2.93 1.27,-1.27 2.25,-2.78 2.95,-4.51 0.7,-1.74 1.05,-3.67 1.05,-5.79 0,-2.12 -0.35,-4.05 -1.05,-5.79 -0.7,-1.74 -1.67,-3.24 -2.92,-4.52 -1.25,-1.27 -2.73,-2.24 -4.42,-2.92 -1.7,-0.68 -3.55,-1.02 -5.54,-1.02 -1.99,0 -3.83,0.34 -5.5,1.02 -1.68,0.68 -3.15,1.65 -4.42,2.92 -1.27,1.28 -2.26,2.78 -2.96,4.52 -0.7,1.74 -1.05,3.67 -1.05,5.79 0,2.08 0.35,4 1.05,5.75 0.7,1.76 1.68,3.28 2.93,4.55 1.25,1.27 2.72,2.25 4.42,2.93 1.69,0.68 3.54,1.02 5.53,1.02z"/>
  <polygon id="_7" class="fil2" points="565.9,87.71 565.9,43.19 606.49,43.19 606.49,87.71 596.25,87.71 596.25,49.23 598.6,51.58 573.79,51.58 576.15,49.23 576.15,87.71 "/>
  <path id="_8" class="fil2" d="M617.68 88.41c-0.76,0 -1.55,-0.06 -2.38,-0.19 -0.83,-0.13 -1.73,-0.3 -2.7,-0.51l0.63 -8.71c0.59,0.17 1.21,0.25 1.85,0.25 1.73,0 3.09,-0.71 4.07,-2.13 0.97,-1.42 1.67,-3.47 2.1,-6.14 0.42,-2.67 0.7,-5.91 0.82,-9.73l0.64 -18.06 34.22 0 0 44.52 -10.18 0 0 -38.48 2.36 2.35 -19.66 0 2.1 -2.48 -0.38 11.77c-0.13,4.37 -0.43,8.25 -0.89,11.64 -0.47,3.39 -1.19,6.27 -2.17,8.65 -0.97,2.37 -2.31,4.18 -4,5.41 -1.7,1.23 -3.84,1.84 -6.43,1.84z"/>
  <path id="_9" class="fil2" d="M663.04 87.71l19.84 -44.52 10.18 0 19.91 44.52 -10.81 0 -16.29 -39.31 4.07 0 -16.34 39.31 -10.56 0zm9.92 -9.54l2.74 -7.82 22.89 0 2.8 7.82 -28.43 0z"/>
  <path id="_10" class="fil2" d="M747.7 87.71l-13.87 -21.43 8.34 -5.03 17.23 26.46 -11.7 0zm-28.94 0l0 -44.52 10.24 0 0 44.52 -10.24 0zm7.25 -17.94l0 -8.58 15.52 0 0 8.58 -15.52 0zm17.11 -3.18l-9.48 -1.14 14.44 -22.26 10.88 0 -15.84 23.4zm-11.7 -27.03l8.58 -9.16 10.69 0 -11.51 9.16 -7.76 0z"/>
  <path id="_11" class="fil2" d="M758.32 87.71l19.85 -44.52 10.18 0 19.91 44.52 -10.82 0 -16.28 -39.31 4.07 0 -16.35 39.31 -10.56 0zm9.93 -9.54l2.73 -7.82 22.9 0 2.8 7.82 -28.43 0z"/>
  <path id="_12" class="fil2" d="M814.17 87.71l0 -44.52 10.24 0 0 16.72 19.53 0 0 -16.72 10.18 0 0 44.52 -10.18 0 0 -19.4 -19.53 0 0 19.4 -10.24 0zm39.95 -5.21l-2.29 -2.42 11.32 0c2.46,0 4.37,-0.56 5.73,-1.69 1.35,-1.12 2.03,-2.72 2.03,-4.8 0,-2.08 -0.68,-3.66 -2.03,-4.74 -1.36,-1.08 -3.27,-1.62 -5.73,-1.62l-11.32 0 2.29 -2.42 0 17.69zm-10.18 5.21l0 -44.52 10.18 0 0 19.2 -2.29 -2.79 13.55 0c5.04,0 8.97,1.18 11.77,3.56 2.79,2.37 4.19,5.72 4.19,10.05 0,4.58 -1.5,8.14 -4.51,10.69 -3.01,2.54 -7.19,3.81 -12.53,3.81l-20.36 0z"/>
  <path id="_13" class="fil2" d="M898.14 61.12l21.43 0 0 8.02 -21.43 0 0 -8.02zm0.76 18.32l24.23 0 0 8.27 -34.47 0 0 -44.52 33.65 0 0 8.26 -23.41 0 0 27.99z"/>
  <polygon class="fil2" points="212.69,135.22 212.69,111.41 232.73,111.41 232.73,135.22 230.24,135.22 230.24,112.9 230.89,113.58 214.52,113.58 215.17,112.9 215.17,135.22 "/>
  <path id="_1_0" class="fil2" d="M240.76 135.22l0 -23.81 8.91 0c2.02,0 3.75,0.32 5.21,0.97 1.45,0.64 2.57,1.57 3.35,2.79 0.78,1.21 1.17,2.68 1.17,4.4 0,1.68 -0.39,3.13 -1.17,4.34 -0.78,1.21 -1.9,2.15 -3.35,2.81 -1.46,0.65 -3.19,0.98 -5.21,0.98l-7.52 0 1.13 -1.19 0 8.71 -2.52 0zm2.52 -8.5l-1.13 -1.23 7.45 0c2.38,0 4.19,-0.51 5.43,-1.55 1.24,-1.03 1.85,-2.49 1.85,-4.37 0,-1.9 -0.61,-3.38 -1.85,-4.42 -1.24,-1.04 -3.05,-1.57 -5.43,-1.57l-7.45 0 1.13 -1.19 0 14.33z"/>
  <polygon id="_2_1" class="fil2" points="264.54,135.22 264.54,111.41 267.02,111.41 267.02,131.14 282.27,111.41 284.54,111.41 284.54,135.22 282.06,135.22 282.06,115.52 266.82,135.22 "/>
  <path id="_3_2" class="fil2" d="M317.31 134.03l0 -20.45 -11.4 0 -0.2 5.79c-0.07,1.79 -0.18,3.51 -0.33,5.15 -0.14,1.65 -0.37,3.12 -0.68,4.43 -0.3,1.3 -0.71,2.36 -1.22,3.18 -0.51,0.81 -1.18,1.29 -1.99,1.43l-2.76 -0.52c0.91,0.05 1.66,-0.28 2.27,-0.98 0.6,-0.71 1.06,-1.69 1.39,-2.96 0.33,-1.27 0.57,-2.76 0.73,-4.46 0.16,-1.7 0.28,-3.54 0.34,-5.51l0.27 -7.72 16.06 0 0 22.62 -2.48 0zm-19.46 6.53l0.03 -7.52 25.49 0 0 7.52 -2.35 0 0 -5.34 -20.79 0 -0.03 5.34 -2.35 0z"/>
  <path id="_4_3" class="fil2" d="M338.95 135.43c-1.79,0 -3.45,-0.3 -4.99,-0.91 -1.53,-0.6 -2.85,-1.45 -3.98,-2.55 -1.12,-1.1 -1.99,-2.38 -2.62,-3.84 -0.62,-1.46 -0.93,-3.07 -0.93,-4.82 0,-1.74 0.31,-3.35 0.93,-4.81 0.63,-1.46 1.5,-2.74 2.62,-3.85 1.13,-1.1 2.45,-1.95 3.97,-2.55 1.52,-0.6 3.18,-0.9 5,-0.9 1.79,0 3.45,0.3 4.97,0.9 1.52,0.6 2.84,1.45 3.96,2.54 1.12,1.09 2,2.37 2.62,3.84 0.62,1.48 0.94,3.09 0.94,4.83 0,1.75 -0.32,3.36 -0.94,4.84 -0.62,1.47 -1.5,2.75 -2.62,3.84 -1.12,1.09 -2.44,1.93 -3.96,2.53 -1.52,0.61 -3.18,0.91 -4.97,0.91zm0 -2.25c1.43,0 2.75,-0.24 3.96,-0.73 1.22,-0.49 2.27,-1.18 3.17,-2.07 0.89,-0.9 1.59,-1.94 2.09,-3.14 0.5,-1.19 0.75,-2.5 0.75,-3.93 0,-1.42 -0.25,-2.73 -0.75,-3.93 -0.5,-1.19 -1.2,-2.23 -2.09,-3.13 -0.9,-0.89 -1.95,-1.58 -3.17,-2.07 -1.21,-0.49 -2.53,-0.73 -3.96,-0.73 -1.43,0 -2.76,0.24 -3.98,0.73 -1.23,0.49 -2.29,1.18 -3.18,2.07 -0.9,0.9 -1.6,1.94 -2.11,3.13 -0.51,1.2 -0.77,2.51 -0.77,3.93 0,1.41 0.26,2.71 0.77,3.92 0.51,1.2 1.21,2.25 2.11,3.15 0.89,0.89 1.95,1.58 3.18,2.07 1.22,0.49 2.55,0.73 3.98,0.73z"/>
  <path id="_5_4" class="fil2" d="M367.87 135.43c-1.79,0 -3.45,-0.3 -4.97,-0.91 -1.52,-0.6 -2.83,-1.44 -3.94,-2.53 -1.12,-1.09 -1.98,-2.37 -2.61,-3.84 -0.62,-1.48 -0.93,-3.09 -0.93,-4.84 0,-1.74 0.31,-3.35 0.93,-4.83 0.63,-1.47 1.5,-2.75 2.62,-3.84 1.13,-1.09 2.45,-1.94 3.97,-2.54 1.51,-0.6 3.17,-0.9 4.96,-0.9 1.73,0 3.35,0.29 4.87,0.87 1.52,0.58 2.8,1.45 3.84,2.6l-1.59 1.6c-0.98,-1 -2.06,-1.72 -3.24,-2.16 -1.18,-0.44 -2.45,-0.66 -3.81,-0.66 -1.43,0 -2.75,0.24 -3.98,0.73 -1.23,0.49 -2.29,1.18 -3.2,2.07 -0.9,0.9 -1.61,1.94 -2.12,3.13 -0.51,1.2 -0.77,2.51 -0.77,3.93 0,1.43 0.26,2.74 0.77,3.93 0.51,1.2 1.22,2.24 2.12,3.14 0.91,0.89 1.97,1.58 3.2,2.07 1.23,0.49 2.55,0.73 3.98,0.73 1.36,0 2.63,-0.23 3.81,-0.68 1.18,-0.45 2.26,-1.18 3.24,-2.18l1.59 1.6c-1.04,1.16 -2.32,2.03 -3.84,2.62 -1.52,0.59 -3.15,0.89 -4.9,0.89z"/>
  <polygon id="_6_5" class="fil2" points="386.24,135.22 386.24,112.9 386.92,113.58 377.87,113.58 377.87,111.41 397.09,111.41 397.09,113.58 388.08,113.58 388.72,112.9 388.72,135.22 "/>
  <path id="_7_6" class="fil2" d="M396.82 135.22l10.89 -23.81 2.48 0 10.89 23.81 -2.65 0 -10.01 -22.35 1.03 0 -10.01 22.35 -2.62 0zm4.29 -6.36l0.75 -2.04 13.85 0 0.74 2.04 -15.34 0z"/>
  <path id="_8_7" class="fil2" d="M425.64 135.22l0 -23.81 9.9 0c2.52,0 4.5,0.51 5.94,1.54 1.44,1.04 2.16,2.55 2.16,4.55 0,1.97 -0.69,3.46 -2.07,4.47 -1.39,1.01 -3.2,1.51 -5.45,1.51l0.58 -0.85c2.65,0 4.67,0.52 6.06,1.57 1.38,1.04 2.07,2.57 2.07,4.59 0,2.04 -0.72,3.63 -2.16,4.75 -1.44,1.12 -3.6,1.68 -6.48,1.68l-10.55 0zm2.49 -2l8.06 0c2.02,0 3.55,-0.38 4.59,-1.13 1.05,-0.75 1.57,-1.9 1.57,-3.47 0,-1.54 -0.52,-2.67 -1.57,-3.4 -1.04,-0.73 -2.57,-1.09 -4.59,-1.09l-8.06 0 0 9.09zm0 -11.03l7.28 0c1.83,0 3.25,-0.37 4.23,-1.1 0.99,-0.74 1.48,-1.84 1.48,-3.29 0,-1.45 -0.49,-2.54 -1.48,-3.28 -0.98,-0.74 -2.4,-1.11 -4.23,-1.11l-7.28 0 0 8.78z"/>
  <path id="_9_8" class="fil2" d="M447.62 135.22l10.89 -23.81 2.48 0 10.89 23.81 -2.65 0 -10.01 -22.35 1.02 0 -10 22.35 -2.62 0zm4.29 -6.36l0.75 -2.04 13.84 0 0.75 2.04 -15.34 0z"/>
  <path id="_10_9" class="fil2" d="M501.65 135.22l-9.15 -11.87 2.04 -1.23 10 13.1 -2.89 0zm-16.29 0l0 -23.81 2.44 0 0 23.81 -2.44 0zm1.7 -10.92l0 -2.21 7.45 0 0 2.21 -7.45 0zm7.69 -0.71l-2.32 -0.41 8.88 -11.77 2.72 0 -9.28 12.18z"/>
  <path id="_11_10" class="fil2" d="M504.65 135.22l10.88 -23.81 2.49 0 10.89 23.81 -2.66 0 -10 -22.35 1.02 0 -10 22.35 -2.62 0zm4.28 -6.36l0.75 -2.04 13.85 0 0.75 2.04 -15.35 0z"/>
  <path id="_12_11" class="fil2" d="M537.28 135.43c-1.34,0 -2.6,-0.3 -3.76,-0.89 -1.17,-0.59 -2.11,-1.43 -2.81,-2.51l1.46 -1.71c0.66,0.96 1.42,1.68 2.28,2.18 0.86,0.5 1.82,0.75 2.86,0.75 2.95,0 4.42,-1.75 4.42,-5.24l0 -14.43 -8.71 0 0 -2.17 11.2 0 0 16.5c0,2.52 -0.59,4.4 -1.76,5.65 -1.16,1.24 -2.89,1.87 -5.18,1.87z"/>
  <path id="_13_12" class="fil2" d="M560.82 135.22l0 -23.81 9.9 0c2.52,0 4.5,0.51 5.94,1.54 1.44,1.04 2.16,2.55 2.16,4.55 0,1.97 -0.69,3.46 -2.08,4.47 -1.38,1.01 -3.2,1.51 -5.44,1.51l0.58 -0.85c2.65,0 4.67,0.52 6.05,1.57 1.39,1.04 2.08,2.57 2.08,4.59 0,2.04 -0.72,3.63 -2.16,4.75 -1.44,1.12 -3.6,1.68 -6.48,1.68l-10.55 0zm2.48 -2l8.07 0c2.02,0 3.55,-0.38 4.59,-1.13 1.04,-0.75 1.57,-1.9 1.57,-3.47 0,-1.54 -0.53,-2.67 -1.57,-3.4 -1.04,-0.73 -2.57,-1.09 -4.59,-1.09l-8.07 0 0 9.09zm0 -11.03l7.28 0c1.84,0 3.25,-0.37 4.24,-1.1 0.99,-0.74 1.48,-1.84 1.48,-3.29 0,-1.45 -0.49,-2.54 -1.48,-3.28 -0.99,-0.74 -2.4,-1.11 -4.24,-1.11l-7.28 0 0 8.78z"/>
  <path id="_14" class="fil2" d="M582.8 135.22l10.89 -23.81 2.48 0 10.89 23.81 -2.66 0 -10 -22.35 1.02 0 -10 22.35 -2.62 0zm4.29 -6.36l0.75 -2.04 13.84 0 0.75 2.04 -15.34 0z"/>
  <path id="_15" class="fil2" d="M621.69 135.43c-1.79,0 -3.45,-0.3 -4.97,-0.91 -1.52,-0.6 -2.83,-1.44 -3.95,-2.53 -1.11,-1.09 -1.98,-2.37 -2.6,-3.84 -0.62,-1.48 -0.93,-3.09 -0.93,-4.84 0,-1.74 0.31,-3.35 0.93,-4.83 0.62,-1.47 1.5,-2.75 2.62,-3.84 1.12,-1.09 2.45,-1.94 3.97,-2.54 1.51,-0.6 3.17,-0.9 4.96,-0.9 1.73,0 3.35,0.29 4.87,0.87 1.52,0.58 2.8,1.45 3.84,2.6l-1.6 1.6c-0.97,-1 -2.05,-1.72 -3.23,-2.16 -1.18,-0.44 -2.45,-0.66 -3.81,-0.66 -1.43,0 -2.76,0.24 -3.98,0.73 -1.23,0.49 -2.29,1.18 -3.2,2.07 -0.91,0.9 -1.62,1.94 -2.13,3.13 -0.5,1.2 -0.76,2.51 -0.76,3.93 0,1.43 0.26,2.74 0.76,3.93 0.51,1.2 1.22,2.24 2.13,3.14 0.91,0.89 1.97,1.58 3.2,2.07 1.22,0.49 2.55,0.73 3.98,0.73 1.36,0 2.63,-0.23 3.81,-0.68 1.18,-0.45 2.26,-1.18 3.23,-2.18l1.6 1.6c-1.04,1.16 -2.32,2.03 -3.84,2.62 -1.52,0.59 -3.15,0.89 -4.9,0.89z"/>
  <path id="_16" class="fil2" d="M661.97 111.41l2.49 0 0 23.81 -2.49 0 0 -23.81zm-14.9 23.81l-2.52 0 0 -23.81 2.52 0 0 23.81zm15.14 -10.99l-15.41 0 0 -2.21 15.41 0 0 2.21z"/>
  <path id="_17" class="fil2" d="M668.98 135.22l10.89 -23.81 2.48 0 10.89 23.81 -2.65 0 -10.01 -22.35 1.02 0 -10 22.35 -2.62 0zm4.29 -6.36l0.75 -2.04 13.84 0 0.75 2.04 -15.34 0z"/>
  <path id="_18" class="fil2" d="M703.21 135.22l10.89 -23.81 2.48 0 10.89 23.81 -2.66 0 -10 -22.35 1.02 0 -10 22.35 -2.62 0zm4.29 -6.36l0.74 -2.04 13.85 0 0.75 2.04 -15.34 0z"/>
  <path id="_19" class="fil2" d="M747.85 134.03l0 -20.45 -11.4 0 -0.2 5.79c-0.07,1.79 -0.18,3.51 -0.33,5.15 -0.14,1.65 -0.37,3.12 -0.68,4.43 -0.3,1.3 -0.71,2.36 -1.22,3.18 -0.51,0.81 -1.18,1.29 -1.99,1.43l-2.76 -0.52c0.91,0.05 1.66,-0.28 2.27,-0.98 0.6,-0.71 1.06,-1.69 1.39,-2.96 0.33,-1.27 0.57,-2.76 0.73,-4.46 0.16,-1.7 0.27,-3.54 0.34,-5.51l0.27 -7.72 16.06 0 0 22.62 -2.48 0zm-19.46 6.53l0.03 -7.52 25.49 0 0 7.52 -2.35 0 0 -5.34 -20.79 0 -0.03 5.34 -2.35 0z"/>
  <path id="_20" class="fil2" d="M759.04 135.22l0 -23.81 8.92 0c2.02,0 3.75,0.32 5.2,0.97 1.46,0.64 2.57,1.57 3.35,2.79 0.79,1.21 1.18,2.68 1.18,4.4 0,1.68 -0.39,3.13 -1.18,4.34 -0.78,1.21 -1.89,2.15 -3.35,2.81 -1.45,0.65 -3.18,0.98 -5.2,0.98l-7.52 0 1.12 -1.19 0 8.71 -2.52 0zm2.52 -8.5l-1.12 -1.23 7.45 0c2.38,0 4.19,-0.51 5.43,-1.55 1.23,-1.03 1.85,-2.49 1.85,-4.37 0,-1.9 -0.62,-3.38 -1.85,-4.42 -1.24,-1.04 -3.05,-1.57 -5.43,-1.57l-7.45 0 1.12 -1.19 0 14.33z"/>
  <path id="_21" class="fil2" d="M785.07 122.06l12.59 0 0 2.14 -12.59 0 0 -2.14zm0.27 10.98l14.33 0 0 2.18 -16.84 0 0 -23.81 16.33 0 0 2.17 -13.82 0 0 19.46z"/>
  <path id="_22" class="fil2" d="M815.59 135.43c-1.79,0 -3.45,-0.3 -4.97,-0.91 -1.52,-0.6 -2.83,-1.44 -3.94,-2.53 -1.11,-1.09 -1.98,-2.37 -2.61,-3.84 -0.62,-1.48 -0.93,-3.09 -0.93,-4.84 0,-1.74 0.31,-3.35 0.93,-4.83 0.63,-1.47 1.5,-2.75 2.62,-3.84 1.13,-1.09 2.45,-1.94 3.97,-2.54 1.52,-0.6 3.17,-0.9 4.96,-0.9 1.73,0 3.35,0.29 4.87,0.87 1.52,0.58 2.8,1.45 3.84,2.6l-1.59 1.6c-0.98,-1 -2.06,-1.72 -3.24,-2.16 -1.18,-0.44 -2.45,-0.66 -3.81,-0.66 -1.43,0 -2.75,0.24 -3.98,0.73 -1.22,0.49 -2.29,1.18 -3.2,2.07 -0.9,0.9 -1.61,1.94 -2.12,3.13 -0.51,1.2 -0.77,2.51 -0.77,3.93 0,1.43 0.26,2.74 0.77,3.93 0.51,1.2 1.22,2.24 2.12,3.14 0.91,0.89 1.98,1.58 3.2,2.07 1.23,0.49 2.55,0.73 3.98,0.73 1.36,0 2.63,-0.23 3.81,-0.68 1.18,-0.45 2.26,-1.18 3.24,-2.18l1.59 1.6c-1.04,1.16 -2.32,2.03 -3.84,2.62 -1.52,0.59 -3.15,0.89 -4.9,0.89z"/>
  <path id="_23" class="fil2" d="M825.42 135.22l10.89 -23.81 2.48 0 10.89 23.81 -2.65 0 -10.01 -22.35 1.03 0 -10.01 22.35 -2.62 0zm4.29 -6.36l0.75 -2.04 13.85 0 0.74 2.04 -15.34 0z"/>
 </g>
</svg>
